<svg xmlns="http://www.w3.org/2000/svg" width="40.208" height="35.547" viewBox="0 0 40.208 35.547">
  <g id="Group_24" data-name="Group 24" transform="translate(-237.792 -508.112)">
    <path id="Union_3" data-name="Union 3" d="M4.663,34.991V29.933C4.49,29.7,0,23.486,0,23.486l.576-6.332.749-8,.691-1.9H3.4l1.266,1.9.921-.921L10.707.576,13.125,0l.4,1.669L14.449.576,16,.979l.864,1.151.748.979.691,2.13.576,2.014.806.346,1.094-1.209V4.49l1.5-2.36L24,.576l1.209.4L26.768,0l1.266.576,4.893,6.677L34.136,9.44,35.172,7.6l1.439-.346.864.691.806,9.21.864,4.951-1.266,3.166-2.706,4.663a5.006,5.006,0,0,0-.851-.35c.065.175.1.276.1.276l1.432,4.934H25.445l-1.432-4.934.055-.114q-.371.088-.754.188c0,.057-2.187-4.951-2.187-4.951V22.1l1.5-3.223V17.154l-2.936-6.39-.806.691-2.418,5.986.4,2.245.748,1.5v4.087l-1.151,3.511-1.431,1.669v4.54Z" transform="translate(238.396 508.668)" fill="#bcaa85"/>
    <path id="_001-dua-hands" data-name="001-dua-hands" d="M40.126,64.072a108.135,108.135,0,0,1-1.307-11.311c.015-1.5-.343-2.478-1.064-2.9a1.936,1.936,0,0,0-1.967.128,2.937,2.937,0,0,0-1.13,1.313l-.174-.276c-.263-.417-.526-.845-.78-1.259-.6-.975-1.219-1.984-1.893-2.941l-.269-.383a16.983,16.983,0,0,0-2.625-3.234,2.431,2.431,0,0,0-2.507-.465,1.823,1.823,0,0,0-.769.676q-.057-.027-.117-.051a2.646,2.646,0,0,0-2.46.189,1.971,1.971,0,0,0-.8,1.758,2.894,2.894,0,0,0-1.155,1.1,3.742,3.742,0,0,0-.3,2.713,3.379,3.379,0,0,0-.712,1.031,3.384,3.384,0,0,0-.712-1.031,3.743,3.743,0,0,0-.3-2.713,2.9,2.9,0,0,0-1.155-1.1,1.97,1.97,0,0,0-.8-1.758,2.646,2.646,0,0,0-2.46-.189c-.04.016-.079.033-.117.051a1.823,1.823,0,0,0-.769-.676,2.431,2.431,0,0,0-2.506.465,16.983,16.983,0,0,0-2.625,3.234l-.269.383c-.675.959-1.3,1.969-1.895,2.945-.254.413-.516.84-.778,1.255l-.173.276a2.936,2.936,0,0,0-1.13-1.313,1.936,1.936,0,0,0-1.967-.128c-.722.422-1.08,1.4-1.064,2.9A108.394,108.394,0,0,1,.077,64.072a5.015,5.015,0,0,0,.2,2.545,45.785,45.785,0,0,0,4.1,7l.969-.651a42.318,42.318,0,0,1-3.963-6.735,3.877,3.877,0,0,1-.148-1.967A109.414,109.414,0,0,0,2.551,52.781c0-.007,0-.015,0-.022-.017-1.48.368-1.82.486-1.89.262-.153.673.061.793.131a2.953,2.953,0,0,1,1.016,1.735,29.7,29.7,0,0,1,.84,9.756c1.806-.363,3.549.924,4.724,2.17-.992-1.2-2.656-2.685-4.342-2.579a29.689,29.689,0,0,0-.188-9.117.558.558,0,0,0,.034-.047l.224-.361c.2-.325.384-.618.568-.909.265-.421.529-.851.785-1.267.591-.961,1.2-1.956,1.855-2.885l.27-.386a17.461,17.461,0,0,1,2.375-2.974A1.336,1.336,0,0,1,13.3,43.8c.224.1.543.461.19,2.043-.769,3.451-2.86,6.573-4.677,9.562,2.094-2.862,5.656-6.832,5.907-10.683a1.216,1.216,0,0,1,.4-.272,1.506,1.506,0,0,1,1.349.059.817.817,0,0,1,.306.766c0,.08-.025.233-.038.311,0,.006,0,.011,0,.017h0a39.69,39.69,0,0,1-3.909,9.944,41.619,41.619,0,0,0,4.507-9.237c.429.2,1.4.873.848,2.884,0,.006,0,.012,0,.017a47.177,47.177,0,0,1-2.755,7.381,49,49,0,0,0,3.25-6.531,3.443,3.443,0,0,1,.7,1.8c.047,1.05-.253,3.479-2.773,7.986-.736,1.316-.173,2.351.372,3.352a7.1,7.1,0,0,1,.948,2.525c.249,1.818-.72,4.9-2.356,7.5l.988.622c1.8-2.855,2.812-6.184,2.525-8.283a8.185,8.185,0,0,0-1.079-2.924c-.555-1.02-.783-1.5-.379-2.225a26.878,26.878,0,0,0,2.492-5.7,26.894,26.894,0,0,0,2.493,5.7c.4.723.176,1.2-.379,2.225a8.184,8.184,0,0,0-1.079,2.924c-.288,2.1.727,5.427,2.525,8.283l.988-.622c-1.636-2.6-2.605-5.684-2.356-7.5a7.1,7.1,0,0,1,.948-2.525c.545-1,1.108-2.037.372-3.352-2.52-4.507-2.82-6.936-2.773-7.986a3.443,3.443,0,0,1,.7-1.8,48.979,48.979,0,0,0,3.25,6.531,47.177,47.177,0,0,1-2.755-7.381c0-.006,0-.012,0-.017-.55-2.016.424-2.692.848-2.884a41.647,41.647,0,0,0,4.508,9.238c-1.634-3.16-3.772-8.8-3.95-10.271a.766.766,0,0,1,.306-.767,1.505,1.505,0,0,1,1.349-.059,1.222,1.222,0,0,1,.4.272c.251,3.851,3.812,7.821,5.907,10.684-1.925-3.167-4.874-7.154-4.867-11.047h0a.669.669,0,0,1,.38-.558,1.335,1.335,0,0,1,1.307.337,17.456,17.456,0,0,1,2.374,2.974l.27.386c.653.928,1.263,1.921,1.853,2.881.256.417.521.848.787,1.27.179.285.357.571.554.887l.238.383c.01.017.022.032.034.047a29.692,29.692,0,0,0-.188,9.117c-1.686-.105-3.35,1.38-4.342,2.579,1.175-1.247,2.917-2.534,4.724-2.17a29.7,29.7,0,0,1,.839-9.755A2.957,2.957,0,0,1,36.373,51c.12-.069.531-.284.793-.131.118.069.5.41.486,1.889,0,.007,0,.015,0,.022a109.294,109.294,0,0,0,1.323,11.486,3.876,3.876,0,0,1-.149,1.967,42.317,42.317,0,0,1-3.963,6.734l.969.651a45.788,45.788,0,0,0,4.1-7A5.021,5.021,0,0,0,40.126,64.072Z" transform="translate(237.795 465.545)" fill="#111e2c"/>
  </g>
</svg>
