<svg id="_002-reading-quran" data-name="002-reading-quran" xmlns="http://www.w3.org/2000/svg" width="46.254" height="32.208" viewBox="0 0 46.254 32.208">
  <path id="Path_1" data-name="Path 1" d="M46.167,74.411,37.295,59.86a.591.591,0,0,0-.72-.243l-1.061.413-.149-.244a.871.871,0,0,0-1.061-.358L23.126,63.783,11.948,59.428a.871.871,0,0,0-1.061.358l-.149.244-1.061-.413a.591.591,0,0,0-.72.243L.086,74.411a.591.591,0,0,0,.287.858l12.654,5.015-1.649,10.61a.592.592,0,0,0,.585.682h1.477a.592.592,0,0,0,.335-.1l9.353-6.424,9.353,6.424a.592.592,0,0,0,.335.1h1.477a.592.592,0,0,0,.584-.682l-1.649-10.61L45.88,75.268a.591.591,0,0,0,.287-.858ZM23.6,78.87V71.3a.473.473,0,1,0-.946,0V78.87L5.45,72.052,12,61.317,22.81,65.53a.872.872,0,0,0,.633,0l10.815-4.214L40.8,72.052Z" transform="translate(0.001 -59.368)" fill="#bcaa85"/>
  <path id="Path_2" data-name="Path 2" d="M225.445,104.681a.473.473,0,0,0-.613-.269l-6.979,2.721a.473.473,0,1,0,.344.882l6.979-2.721A.473.473,0,0,0,225.445,104.681Z" transform="translate(-191.816 -99.055)" fill="#bcaa85"/>
  <path id="Path_3" data-name="Path 3" d="M227.582,129.117a.473.473,0,1,0,.344.882l6.979-2.721a.473.473,0,1,0-.344-.882Z" transform="translate(-200.394 -118.439)" fill="#bcaa85"/>
  <path id="Path_4" data-name="Path 4" d="M237.82,153.746a.473.473,0,0,0,.613.269l6.98-2.721a.473.473,0,0,0-.344-.882l-6.98,2.721A.473.473,0,0,0,237.82,153.746Z" transform="translate(-209.658 -139.613)" fill="#bcaa85"/>
  <path id="Path_5" data-name="Path 5" d="M114.071,107.134l-6.979-2.721a.473.473,0,0,0-.344.882l6.98,2.721a.473.473,0,0,0,.344-.882Z" transform="translate(-93.854 -99.056)" fill="#bcaa85"/>
  <path id="Path_6" data-name="Path 6" d="M104.343,129.118l-6.98-2.721a.473.473,0,0,0-.344.882L104,130a.473.473,0,1,0,.344-.882Z" transform="translate(-85.276 -118.439)" fill="#bcaa85"/>
  <path id="Path_7" data-name="Path 7" d="M93.835,153.134l-6.979-2.721a.473.473,0,0,0-.344.882l6.979,2.721a.473.473,0,0,0,.344-.882Z" transform="translate(-76.012 -139.615)" fill="#bcaa85"/>
</svg>
