<svg xmlns="http://www.w3.org/2000/svg" width="36.43" height="34.695" viewBox="0 0 36.43 34.695">
  <g id="turn-notifications-on-button" transform="translate(0 -12.75)">
    <g id="notifications-on" transform="translate(0 12.75)">
      <path id="Path_15" data-name="Path 15" d="M9.715,15.526,7.286,13.1A18.291,18.291,0,0,0,0,26.628H3.47A14.336,14.336,0,0,1,9.715,15.526Zm23.246,11.1h3.47A18.118,18.118,0,0,0,29.317,13.1l-2.429,2.429A14.673,14.673,0,0,1,32.96,26.628Zm-3.47.867a11.163,11.163,0,0,0-8.674-10.929V15.352a2.6,2.6,0,0,0-5.2,0v1.214A11.163,11.163,0,0,0,6.939,27.5v9.541l-3.47,3.47v1.735H32.96V40.506l-3.47-3.47ZM18.215,47.445h.694a3.017,3.017,0,0,0,2.429-2.082,3.268,3.268,0,0,0,.347-1.388H14.745A3.48,3.48,0,0,0,18.215,47.445Z" transform="translate(0 -12.75)" fill="#bcaa85"/>
    </g>
  </g>
</svg>
