<?xml version="1.0" encoding="utf-8"?>
<!-- Generator: Adobe Illustrator 22.1.0, SVG Export Plug-In . SVG Version: 6.00 Build 0)  -->
<svg version="1.1" id="Layer_1" xmlns="http://www.w3.org/2000/svg" xmlns:xlink="http://www.w3.org/1999/xlink" x="0px" y="0px"
	 viewBox="0 0 84.2 78.1" style="enable-background:new 0 0 84.2 78.1;" xml:space="preserve">
<style type="text/css">
	.st0{fill:#fff;}
</style>
<g>
	<path class="st0" d="M84.2,22.5c-1.5,2.2-2.2,5.4-2,9.5c0.5,1.7,1,4,1.6,7.1c0,0.8-0.3,1.6-1,2.4c-0.7,0.8-1.4,1.2-2.1,1.2
		c-1,0-1.8-0.3-2.3-0.8c0,10-3.5,18.6-10.6,25.6c-7.1,7.1-15.6,10.6-25.6,10.6s-18.6-3.5-25.6-10.6C9.4,60.5,5.9,51.9,5.9,41.9
		c-0.5,0.5-1.3,0.8-2.3,0.8c-0.7,0-1.4-0.4-2.1-1.2c-0.7-0.8-1.1-1.6-1-2.4c0.5-1.6,1-4,1.6-7.1c0.2-4.1-0.5-7.2-2-9.5
		c4.4,0.3,7.3,2.1,8.6,5.3l-0.1,4c-0.1-1.6-0.7-3.2-1.6-4.6c-1.2-1.9-2.8-2.8-4.7-3C3,25.6,3.4,28.2,3.4,32c0,0.7-0.2,1.8-0.7,3.4
		C2.2,37,2,38.1,1.9,38.7c-0.1,1.7,0.7,2.5,2.3,2.5c0.8,0,1.6-0.6,2.4-1.7c0.2-0.3,0.5-0.6,0.7-1c-0.1,1.4-0.2,2.5-0.2,3.4
		c0,9.5,3.4,17.6,10.3,24.3c6.9,6.7,15.1,10.1,24.6,10.1c9.5,0,17.8-3.4,24.6-10.1c6.9-6.7,10.3-14.9,10.3-24.3
		c0-0.9-0.1-2.1-0.2-3.4c0.2,0.3,0.5,0.6,0.7,1c0.7,1.1,1.5,1.7,2.3,1.7c1.7,0,2.5-0.8,2.4-2.5c0-0.6-0.3-1.7-0.8-3.2
		c-0.5-1.6-0.8-2.7-0.8-3.4c0-3.8,0.4-6.3,1.3-7.6c-1.9,0.1-3.5,1.1-4.7,3c-1,1.5-1.5,3-1.7,4.6l0-4C77,24.6,79.9,22.8,84.2,22.5z
		 M19.1,21.9l-1.8,1.4c0,0,0.7-3.6,0.7-5.6c0-4-0.9-6.2-2.7-6.6c-0.1,2.6-1.1,5-2.8,7.4c-1.6,1.4-3.6,3.2-6,5.7
		c-0.3,0.6-0.4,1-0.4,1.2l-1.3-0.8c0-0.2,0.1-0.4,0.3-0.7c0.3-0.7,1.3-1.7,2.9-3.2c1.9-1.6,3-2.7,3.4-3.2c1.9-2.5,2.9-5.5,3-8.9
		c3.5,1,5.2,4,5.2,9.1C19.4,18.8,19.1,21.9,19.1,21.9z M72.1,40.1c0,8.3-2.9,15.3-8.8,21.2c-5.9,5.9-12.9,8.8-21.2,8.8
		s-15.3-2.9-21.2-8.8s-8.8-12.9-8.8-21.2c0-8,2.8-14.9,8.4-20.7c4.7-4.9,9.9-7.8,15.4-8.6c1.1-0.1,2.2-0.6,3.1-1.4
		c1.1-0.9,1.7-2,1.7-3.3c0-1.3-0.5-2.4-1.4-3.4c-1-1-2.1-1.4-3.4-1.4c-1.3,0-2.5,0.5-3.4,1.4S31,4.8,31,6.1c0,1.5,0.6,2.8,1.8,3.8
		c-2.5,0.3-5.2,1.1-8.2,2.3c-2.1,0.9-3.8,2-5.3,3.4l-1.5-0.2c1.4-1.6,3.6-3.1,6.7-4.5c1.4-0.6,3.5-1.3,6.3-1.8c-0.6-1-1-2.1-1-3.4
		c0-1.7,0.6-3.1,1.9-4.2c1.2-1,2.6-1.5,4.2-1.5c1.6,0,3,0.5,4.3,1.6c1.3,1.1,1.9,2.5,1.9,4.2c0,1.8-0.7,3.2-2,4.3c0.5,0,1.2,0,2,0
		c0.9,0,1.5,0,2,0c-1.3-1.1-2-2.6-2-4.3c0-1.6,0.6-3,1.9-4.2C45.2,0.5,46.7,0,48.3,0c1.6,0,3,0.5,4.2,1.5c1.4,1.1,2,2.5,2,4.2
		c0,1.2-0.3,2.4-1,3.4c2.7,0.5,4.8,1.1,6.3,1.8c3,1.4,5.3,2.9,6.7,4.5L65,15.5c-1.6-1.5-3.4-2.6-5.4-3.4c-3.1-1.3-5.8-2-8.3-2.3
		c1.2-1,1.8-2.2,1.8-3.8c0-1.3-0.5-2.4-1.4-3.4s-2.1-1.4-3.4-1.4c-1.3,0-2.4,0.5-3.4,1.4c-1,1-1.4,2.1-1.4,3.4
		c0,1.2,0.6,2.3,1.7,3.3c0.9,0.8,2,1.3,3.1,1.4c5.5,0.9,10.7,3.7,15.4,8.6C69.3,25.1,72.1,32,72.1,40.1z M70.6,40.1
		c0-7.8-2.6-14.4-7.9-19.8c-4.2-4.2-8.9-6.9-14.3-8.1c-1.8-0.4-3.9-0.6-6.3-0.6s-4.5,0.2-6.3,0.6c-5.4,1.2-10.1,4-14.2,8.2
		c-5.3,5.4-7.9,11.9-7.9,19.7c0,7.9,2.8,14.7,8.3,20.2c5.5,5.5,12.2,8.3,20.2,8.3s14.7-2.8,20.2-8.3C67.9,54.7,70.6,48,70.6,40.1z
		 M79.6,24.6l-1.4,0.8c0-0.2-0.1-0.6-0.4-1.2c-1.6-1.4-3.5-3.2-5.9-5.7c-1.7-2.4-2.7-4.8-2.8-7.4c-1.9,0.4-2.8,2.6-2.8,6.7
		c0,1.9,0.7,5.5,0.7,5.5l-1.7-1.4c0,0-0.3-3.1-0.3-4.2c0-5,1.7-8.1,5.2-9.1c0.1,3.3,1.1,6.3,3,8.9c1.8,1.5,3.9,3.6,6.2,6.4
		C79.5,24.6,79.6,24.8,79.6,24.6z M31.8,9.9c0,0-1.4-2.1-0.7-4.9s2-3.6,4.8-3.7s4,1.7,4.6,3.4c0.6,1.7,1.2,4.3-1.2,5.2
		s-8.2,3.2-8.2,3.2l-5.9,2.8l-4.8,4.5l-2.8,3.3l0.9-5.9l0.1-2.8l2.5-1.8l2.8-1.7l4.8-1.5L31.8,9.9z"/>
	<path class="st0" d="M52.5,9.9c0,0,1.4-2.1,0.7-4.9c-0.7-2.8-2-4.6-4.8-4.7s-4,1.7-4.6,3.4S42.5,9,44.9,9.9s8.2,3.2,8.2,3.2
		l5.9,2.8l4.8,4.5l2.8,3.3l-0.9-5.9l-0.1-2.8l-2.5-1.8l-2.8-1.7l-4.8-1.5L52.5,9.9z"/>
</g>
</svg>
