<svg id="Layer_1" data-name="Layer 1" xmlns="http://www.w3.org/2000/svg" viewBox="0 0 295.69 295.69"><defs><style>.cls-1{fill:#111f2f;}.cls-2{fill:#e5ddc6;}.cls-3{fill:#bfac7b;}.cls-4{fill:#d3c7a4;}</style></defs><title>SurahTitle-bg</title><path class="cls-1" d="M186.34,286.72a10,10,0,0,0,7.21-.74h0a6.51,6.51,0,0,0,2.77-3.15c-.74-.55-1.29-1.11-2-1.66a4.5,4.5,0,0,0-1.48-.19,11.16,11.16,0,0,1-2.59-.36c-7.91-1.3-12.57-5.55-16.1-9.62l-.8-1.11c1.48,2.59,3.22,5.73,4.55,8.32C179.59,281.35,182.46,285.61,186.34,286.72Z" transform="translate(-2.11 -2.11)"/><path class="cls-1" d="M196.69,281.35v-.18h-1.48a8.22,8.22,0,0,0,1.29,1.11A8.18,8.18,0,0,0,196.69,281.35Z" transform="translate(-2.11 -2.11)"/><path class="cls-1" d="M266.2,267.31a7.69,7.69,0,0,1-.74-1.85l-4.25-4.25a49.1,49.1,0,0,1,2.58,6.1c5,15,7.21,27.35,1.48,30.5h.56C272.11,296.51,271.56,282.46,266.2,267.31Z" transform="translate(-2.11 -2.11)"/><path class="cls-1" d="M210,239.39a6.12,6.12,0,0,0,5.73-.74c.37.93,1.11,3.33,4.07,3.33h.37c4.06,0,5.17-3.14,6.28-5.55a5.55,5.55,0,0,1,.74-1.84h0A30.44,30.44,0,0,1,230,230l-6.1-6.1c-.74,0-1.48.19-2.21.19a15.16,15.16,0,0,0-8.51,3.88,5.47,5.47,0,0,0-1.29,6.47,7.39,7.39,0,0,0,3,2.77v.19l.18-.19s1.11-.18,2.77-2.95a26.84,26.84,0,0,1,3.89-4.26,16.1,16.1,0,0,1,4.62-1.84c-.19,0-.19,0-.37.18h-.37c-1.48.74-3.15,1.48-6.84,6.66a16.76,16.76,0,0,1-3,3.14h0a6.89,6.89,0,0,1-5.55.92,8.41,8.41,0,0,1-4.62-4.06c-1.11-2.78-1.66-6.66,0-10,2-4.25,5.36-6.84,11.83-7.58l-.92-.92c-5.92.92-10,3.7-12,8.32a12.79,12.79,0,0,0,.37,10.72A7.89,7.89,0,0,0,210,239.39Z" transform="translate(-2.11 -2.11)"/><path class="cls-1" d="M277.1,277.1h0l-2.4-2.4v2.22c-.19,7-3.33,20.7-8.32,20.89h.74C273.41,296.51,276.73,286.16,277.1,277.1Z" transform="translate(-2.11 -2.11)"/><path class="cls-1" d="M242.9,243.09c-3.32-1.85-5.54-3.14-7-5.73A7.2,7.2,0,0,1,235,235l-2.41-2.41c-.74,2.22-1.66,5.92-2.4,8.88a44,44,0,0,0-1.11,9,18.14,18.14,0,0,0,1.85,8.51c.55.55,2.22,2.95,5.17,2.95a7.83,7.83,0,0,0,2-.18c3.33-1.11,4.25-3.14,4.43-3.88,1.3.92,3,2,4.63,3.14,3,2.22,5.91,4.25,8.13,6.1,5,4.07,8,8.32,10.17,17,3.32,12.38-.74,13.49-.74,13.68h.18c3.7-2.22,3-7.4,1.67-13.87-1.85-8.87-5.73-12.94-10.91-17.19v-.18c-2.22-1.67-5.36-3.89-8.32-5.92a69.42,69.42,0,0,1-7.76-5.91A24.79,24.79,0,0,1,237,251a50.39,50.39,0,0,1-1.48-5c1.11,2.58,2.59,5.73,4.44,7.39a7.34,7.34,0,0,0,3.69,1.66,5.12,5.12,0,0,0,5-3.32,4.6,4.6,0,0,0,0-3.15l-5.17-5.17C243.27,243.27,243.09,243.27,242.9,243.09Z" transform="translate(-2.11 -2.11)"/><path class="cls-1" d="M269.34,271.19a86.3,86.3,0,0,1,1.85,18.48h0s.92-1.29,1.85-7a65.91,65.91,0,0,0,.55-7.58,5.2,5.2,0,0,0-.18-1.66l-5-5A16.81,16.81,0,0,1,269.34,271.19Z" transform="translate(-2.11 -2.11)"/><path class="cls-1" d="M279.14,279.14a2.19,2.19,0,0,1-.19.92l.37-.74Z" transform="translate(-2.11 -2.11)"/><path class="cls-1" d="M208.34,211.48" transform="translate(-2.11 -2.11)"/><path class="cls-1" d="M150.57,256.21a11.91,11.91,0,0,1-.58-1.29v1.48h.08a26,26,0,0,1-.08,18.85v1.3A26.42,26.42,0,0,0,150.57,256.21Z" transform="translate(-2.11 -2.11)"/><path class="cls-1" d="M159.22,290.78a16.36,16.36,0,0,0,9.35-10.16,21.75,21.75,0,0,0,.85-12,36.89,36.89,0,0,0-4.88-10.54c2.09,2.59,3.85,5,5.4,7.21l.33.56c1.15,1.85,4.79,8.13,7.14,12.57,1.75,3.32,4.71,7.58,8.93,8.69a9.6,9.6,0,0,0,7.58-.74,5.85,5.85,0,0,0,2.77-3.15c.74.56,1.29,1.11,2,1.67a27.29,27.29,0,0,0,15,6.28,8.62,8.62,0,0,0-.56,1.67,3.87,3.87,0,0,0,.93,2.4c1.11,1.48,3.69,1.85,5.91.92,3.7-1.66,6.47-4.43,8.51-6.28l1.66-1.67,1.11-.92-1.3.55a10,10,0,0,1-5.17.19,10.8,10.8,0,0,1-3.51-1.29,5.15,5.15,0,0,0-1.48-.74,5,5,0,0,0-4.44-.56,2.27,2.27,0,0,0-1.48,1.85.69.69,0,0,0-.18.55,14.43,14.43,0,0,0,.18,1.85h.19v.19a38.33,38.33,0,0,0,4.25.37,39.38,39.38,0,0,0,8.13-.56c-2.77,1.11-11.46,1.11-11.83,1.11a29.83,29.83,0,0,1-15.53-6.28,20.14,20.14,0,0,1-2.22-1.85c.19-.37.19-.74.37-1.11v-.37c1.48,0,3.15.18,5.18.18h6.1c4.81.19,8.69.37,16.45,1.11a54,54,0,0,1,15.16,3.89l1.3.55-.93-.92c-.37-.37-6.84-7.21-12.94-9.25-5.54-1.66-11.65-1.29-12.94-1.29a7.58,7.58,0,0,0-3.33-4.81c-2.58-2-7-.55-7.21-.55l-.92.18.92.37a5.44,5.44,0,0,1,3.33,2.41,3.81,3.81,0,0,1-.18,3.14c-.37.92-2.22,3.88-9.8,4.25.37-4.07-1.66-13.68-10.54-21.07,1.48,1.29,4.44,2.4,8.88,8.5a13.36,13.36,0,0,1,2.21,5.36c1.11.37,5.36-1.66,3.89-6.1-1.3-3.7-3.7-5.18-7.21-6.65-2.41-.93-4.63-1.67-8.51-2.78-1.37-.55-2.92-.92-4.77-1.66l-1.42-.37,1.18.92s2.15,1.67,4.64,5.92a70.08,70.08,0,0,1,2.59,6.65c.56,2.59.56,4.63,1.48,5.73a2.94,2.94,0,0,0,2.59,1.48,2.7,2.7,0,0,0,2.4-.74,2.54,2.54,0,0,0,1.11-2,20.41,20.41,0,0,1,.92,6.84,5.11,5.11,0,0,1-2.4,0,171.58,171.58,0,0,1-13.88-15.16,81.63,81.63,0,0,0-28.19-22c-.85-.37-1.65-.74-2.41-1.11v1.3a24.12,24.12,0,0,1,3.57,1.66h0c15.09,7.77,22.67,16.27,25.9,20.15,4.88,5.73,10.2,11.28,14.27,15.16h-.92a12.08,12.08,0,0,1-2.59-.37c-7.65-1.11-12.24-5.55-15.7-9.43-1.22-1.48-2.47-3.32-3.78-5.17a4.87,4.87,0,0,0-.36-.56h0c-3-4.25-6.49-9.8-12.19-14.6a75.82,75.82,0,0,0-8.17-6.1v1.11a63.8,63.8,0,0,1,7.45,5.36c4.9,4.43,9.76,11.09,11.47,18.11,1.58,6.47-.47,17.75-9.89,21.45a20.3,20.3,0,0,1-9,1.48v.55a20.29,20.29,0,0,0,9.23-1.48Zm37.47-9.61h0v.18a8.18,8.18,0,0,1-.19.93,8.22,8.22,0,0,1-1.29-1.11ZM174.12,271c3.53,4.07,8.19,8.32,16.1,9.62a11.16,11.16,0,0,0,2.59.36,4.5,4.5,0,0,1,1.48.19c.74.55,1.29,1.11,2,1.66a6.51,6.51,0,0,1-2.77,3.15h0a10,10,0,0,1-7.21.74c-3.88-1.11-6.75-5.37-8.47-8.51-1.33-2.59-3.07-5.73-4.55-8.32Z" transform="translate(-2.11 -2.11)"/><path class="cls-1" d="M150,240.13a13.68,13.68,0,0,0,2.59.74c8.49,2.22,16.1-2.4,16.18-2.4l1.09-.56h-1.26a23.59,23.59,0,0,1-7.34.37,40.39,40.39,0,0,1-10.2-3c-.35-.18-.7-.18-1.06-.36Z" transform="translate(-2.11 -2.11)"/><path class="cls-2" d="M175.52,244.2l-9.85,3.88c6.21,2.59,13.51,3.51,22.33,4.25,9.8.74,14.79,6.66,14.79,6.66l.92,1.11-.55-1.3c0-.18-3-9.06-10.91-12.2a15.21,15.21,0,0,0-6.84-.55,10.14,10.14,0,0,0,1.48-5.18,1.53,1.53,0,0,0,0-1.29c-.37-6.1-5.82-7.77-5.88-8h-.51l.18.37a12.43,12.43,0,0,1,.57,4.43A8.48,8.48,0,0,1,175.52,244.2Z" transform="translate(-2.11 -2.11)"/><path class="cls-1" d="M167,290.23a21.4,21.4,0,0,1-3,2.22,14.17,14.17,0,0,0,4.83-.56,8,8,0,0,0,4.34-4.25s.32.92,2.92,2.4c3.53,1.85,10-.18,10-.18h0s-5.82.18-9.67-4.07c-2.6-3-5.39-15.9-5.39-15.9a82.94,82.94,0,0,1,.68,8.88C171.73,282.46,170.94,287.09,167,290.23Z" transform="translate(-2.11 -2.11)"/><path class="cls-3" d="M155.34,259.73a26.94,26.94,0,0,0-5.35-8.51v1.48a23.29,23.29,0,0,1,3,10.17c.24,6.65-.48,9.8-2.2,13.86-.34.74-.61,1.48-.84,1.85v2.59a6.9,6.9,0,0,0,2.46,2.22,8.86,8.86,0,0,0,9.39-1.3s-5.58-3.14-5.19-9.24C157.13,265.64,156.52,263.05,155.34,259.73Z" transform="translate(-2.11 -2.11)"/><path class="cls-1" d="M286.72,186.34a10,10,0,0,1-.74,7.21h0a6.51,6.51,0,0,1-3.15,2.77c-.55-.74-1.11-1.29-1.66-2a4.5,4.5,0,0,1-.19-1.48,11.16,11.16,0,0,0-.36-2.59c-1.3-7.91-5.55-12.57-9.62-16.1l-1.11-.8c2.59,1.48,5.73,3.22,8.32,4.55C281.35,179.59,285.61,182.46,286.72,186.34Z" transform="translate(-2.11 -2.11)"/><path class="cls-1" d="M281.35,196.69h-.18v-1.48a8.22,8.22,0,0,1,1.11,1.29A8.18,8.18,0,0,1,281.35,196.69Z" transform="translate(-2.11 -2.11)"/><path class="cls-1" d="M267.31,266.2a7.69,7.69,0,0,0-1.85-.74l-4.25-4.25a49.1,49.1,0,0,0,6.1,2.58c15,5,27.35,7.21,30.5,1.48v.56C296.51,272.11,282.46,271.56,267.31,266.2Z" transform="translate(-2.11 -2.11)"/><path class="cls-1" d="M239.39,210a6.12,6.12,0,0,1-.74,5.73c.93.37,3.33,1.11,3.33,4.07v.37c0,4.06-3.14,5.17-5.55,6.28a5.55,5.55,0,0,0-1.84.74h0A30.44,30.44,0,0,0,230,230l-6.1-6.1c0-.74.19-1.48.19-2.21a15.16,15.16,0,0,1,3.88-8.51,5.47,5.47,0,0,1,6.47-1.29,7.39,7.39,0,0,1,2.77,3h.19l-.19.18s-.18,1.11-2.95,2.77a26.84,26.84,0,0,0-4.26,3.89,16.1,16.1,0,0,0-1.84,4.62c0-.19,0-.19.18-.37v-.37c.74-1.48,1.48-3.15,6.66-6.84a16.76,16.76,0,0,0,3.14-3h0a6.89,6.89,0,0,0,.92-5.55,8.41,8.41,0,0,0-4.06-4.62c-2.78-1.11-6.66-1.66-10,0-4.25,2-6.84,5.36-7.58,11.83l-.92-.92c.92-5.92,3.7-10,8.32-12a12.79,12.79,0,0,1,10.72.37A7.89,7.89,0,0,1,239.39,210Z" transform="translate(-2.11 -2.11)"/><path class="cls-1" d="M277.1,277.1h0l-2.4-2.4h2.22c7-.19,20.7-3.33,20.89-8.32v.74C296.51,273.41,286.16,276.73,277.1,277.1Z" transform="translate(-2.11 -2.11)"/><path class="cls-1" d="M243.09,242.9c-1.85-3.32-3.14-5.54-5.73-7A7.2,7.2,0,0,0,235,235l-2.41-2.41c2.22-.74,5.92-1.66,8.88-2.4a44,44,0,0,1,9-1.11,18.14,18.14,0,0,1,8.51,1.85c.55.55,2.95,2.22,2.95,5.17a7.83,7.83,0,0,1-.18,2c-1.11,3.33-3.14,4.25-3.88,4.43.92,1.3,2,3,3.14,4.63,2.22,3,4.25,5.91,6.1,8.13,4.07,5,8.32,8,17,10.17,12.38,3.32,13.49-.74,13.68-.74v.18c-2.22,3.7-7.4,3-13.87,1.67-8.87-1.85-12.94-5.73-17.19-10.91h-.18c-1.67-2.22-3.89-5.36-5.92-8.32a69.42,69.42,0,0,0-5.91-7.76A24.79,24.79,0,0,0,251,237a50.39,50.39,0,0,0-5-1.48c2.58,1.11,5.73,2.59,7.39,4.44a7.34,7.34,0,0,1,1.66,3.69,5.12,5.12,0,0,1-3.32,5,4.6,4.6,0,0,1-3.15,0l-5.17-5.17C243.27,243.27,243.27,243.09,243.09,242.9Z" transform="translate(-2.11 -2.11)"/><path class="cls-1" d="M271.19,269.34a86.3,86.3,0,0,0,18.48,1.85h0s-1.29.92-7,1.85a65.91,65.91,0,0,1-7.58.55,5.2,5.2,0,0,1-1.66-.18l-5-5A16.81,16.81,0,0,0,271.19,269.34Z" transform="translate(-2.11 -2.11)"/><path class="cls-1" d="M279.14,279.14a2.19,2.19,0,0,0,.92-.19l-.74.37Z" transform="translate(-2.11 -2.11)"/><path class="cls-1" d="M256.21,150.57a11.91,11.91,0,0,0-1.29-.58h1.48v.08a26,26,0,0,0,18.85-.08h1.3A26.42,26.42,0,0,1,256.21,150.57Z" transform="translate(-2.11 -2.11)"/><path class="cls-1" d="M290.78,159.22a16.36,16.36,0,0,1-10.16,9.35,21.75,21.75,0,0,1-12,.85,36.89,36.89,0,0,1-10.54-4.88c2.59,2.09,5,3.85,7.21,5.4l.56.33c1.85,1.15,8.13,4.79,12.57,7.14,3.32,1.75,7.58,4.71,8.69,8.93a9.6,9.6,0,0,1-.74,7.58,5.85,5.85,0,0,1-3.15,2.77c.56.74,1.11,1.29,1.67,2a27.29,27.29,0,0,1,6.28,15,8.62,8.62,0,0,1,1.67-.56,3.87,3.87,0,0,1,2.4.93c1.48,1.11,1.85,3.69.92,5.91-1.66,3.7-4.43,6.47-6.28,8.51l-1.67,1.66-.92,1.11.55-1.3a10,10,0,0,0,.19-5.17,10.8,10.8,0,0,0-1.29-3.51,5.15,5.15,0,0,1-.74-1.48,5,5,0,0,1-.56-4.44,2.27,2.27,0,0,1,1.85-1.48.69.69,0,0,1,.55-.18,14.43,14.43,0,0,1,1.85.18v.19h.19a38.33,38.33,0,0,1,.37,4.25,39.38,39.38,0,0,1-.56,8.13c1.11-2.77,1.11-11.46,1.11-11.83a29.83,29.83,0,0,0-6.28-15.53,20.14,20.14,0,0,0-1.85-2.22c-.37.19-.74.19-1.11.37h-.37c0,1.48.18,3.15.18,5.18v6.1c.19,4.81.37,8.69,1.11,16.45a54,54,0,0,0,3.89,15.16l.55,1.3-.92-.93c-.37-.37-7.21-6.84-9.25-12.94-1.66-5.54-1.29-11.65-1.29-12.94a7.58,7.58,0,0,1-4.81-3.33c-2-2.58-.55-7-.55-7.21l.18-.92.37.92a5.44,5.44,0,0,0,2.41,3.33,3.81,3.81,0,0,0,3.14-.18c.92-.37,3.88-2.22,4.25-9.8-4.07.37-13.68-1.66-21.07-10.54,1.29,1.48,2.4,4.44,8.5,8.88a13.36,13.36,0,0,0,5.36,2.21c.37,1.11-1.66,5.36-6.1,3.89-3.7-1.3-5.18-3.7-6.65-7.21-.93-2.41-1.67-4.63-2.78-8.51-.55-1.37-.92-2.92-1.66-4.77l-.37-1.42.92,1.18s1.67,2.15,5.92,4.64a70.08,70.08,0,0,0,6.65,2.59c2.59.56,4.63.56,5.73,1.48a2.94,2.94,0,0,1,1.48,2.59,2.7,2.7,0,0,1-.74,2.4,2.54,2.54,0,0,1-2,1.11,20.41,20.41,0,0,0,6.84.92,5.11,5.11,0,0,0,0-2.4,171.58,171.58,0,0,0-15.16-13.88,81.63,81.63,0,0,1-22-28.19c-.37-.85-.74-1.65-1.11-2.41h1.3a24.12,24.12,0,0,0,1.66,3.57h0c7.77,15.09,16.27,22.67,20.15,25.9,5.73,4.88,11.28,10.2,15.16,14.27v-.92a12.08,12.08,0,0,0-.37-2.59c-1.11-7.65-5.55-12.24-9.43-15.7-1.48-1.22-3.32-2.47-5.17-3.78a4.87,4.87,0,0,1-.56-.36v0c-4.25-3-9.8-6.49-14.6-12.19a75.82,75.82,0,0,1-6.1-8.17h1.11a63.8,63.8,0,0,0,5.36,7.45c4.43,4.9,11.09,9.76,18.11,11.47,6.47,1.58,17.75-.47,21.45-9.89a20.3,20.3,0,0,0,1.48-9h.55a20.29,20.29,0,0,1-1.48,9.23Zm-9.61,37.47h.18a8.18,8.18,0,0,0,.93-.19,8.22,8.22,0,0,0-1.11-1.29ZM271,174.12c4.07,3.53,8.32,8.19,9.62,16.1a11.16,11.16,0,0,1,.36,2.59,4.5,4.5,0,0,0,.19,1.48c.55.74,1.11,1.29,1.66,2a6.51,6.51,0,0,0,3.15-2.77h0a10,10,0,0,0,.74-7.21c-1.11-3.88-5.37-6.75-8.51-8.47-2.59-1.33-5.73-3.07-8.32-4.55Z" transform="translate(-2.11 -2.11)"/><path class="cls-1" d="M240.13,150a13.68,13.68,0,0,1,.74,2.59c2.22,8.49-2.4,16.1-2.4,16.18l-.56,1.09v-1.26a23.59,23.59,0,0,0,.37-7.34,40.39,40.39,0,0,0-3-10.2c-.18-.35-.18-.7-.36-1.06Z" transform="translate(-2.11 -2.11)"/><path class="cls-2" d="M244.2,175.52l3.88-9.85c2.59,6.21,3.51,13.51,4.25,22.33.74,9.8,6.66,14.79,6.66,14.79l1.11.92-1.3-.55c-.18,0-9.06-3-12.2-10.91a15.21,15.21,0,0,1-.55-6.84,10.14,10.14,0,0,1-5.18,1.48,1.53,1.53,0,0,1-1.29,0c-6.1-.37-7.77-5.82-8-5.88v-.51l.37.18a12.43,12.43,0,0,0,4.43.57A8.48,8.48,0,0,0,244.2,175.52Z" transform="translate(-2.11 -2.11)"/><path class="cls-1" d="M290.23,167a21.4,21.4,0,0,0,2.22-3,14.17,14.17,0,0,1-.56,4.83,8,8,0,0,1-4.25,4.34s.92.32,2.4,2.92c1.85,3.53-.18,10-.18,10h0s.18-5.82-4.07-9.67c-3-2.6-15.9-5.39-15.9-5.39a82.94,82.94,0,0,0,8.88.68C282.46,171.73,287.09,170.94,290.23,167Z" transform="translate(-2.11 -2.11)"/><path class="cls-4" d="M259.73,155.34a26.94,26.94,0,0,1-8.51-5.35h1.48a23.29,23.29,0,0,0,10.17,3c6.65.24,9.8-.48,13.86-2.2.74-.34,1.48-.61,1.85-.84h2.59a6.9,6.9,0,0,1,2.22,2.46,8.86,8.86,0,0,1-1.3,9.39s-3.14-5.58-9.24-5.19C265.64,157.13,263.05,156.52,259.73,155.34Z" transform="translate(-2.11 -2.11)"/><path class="cls-1" d="M13.34,186.34a9.67,9.67,0,0,0,.68,7.21h0a6.11,6.11,0,0,0,3.12,2.77c.56-.74,1.15-1.29,1.77-2,0-.56.07-1.11.13-1.48.07-.93.17-1.85.3-2.59,1.25-7.91,5.63-12.57,9.74-16.1l1-.8c-2.57,1.48-5.68,3.22-8.21,4.55-3.27,1.72-7.41,4.59-8.51,8.47Z" transform="translate(-2.11 -2.11)"/><path class="cls-1" d="M18.6,196.69h.22c0-.56,0-1.11.05-1.48a7.14,7.14,0,0,0-1.19,1.29C18,196.5,18.28,196.69,18.6,196.69Z" transform="translate(-2.11 -2.11)"/><path class="cls-1" d="M32.63,266.2a8.47,8.47,0,0,1,2-.74l4.22-4.25a55.7,55.7,0,0,1-6.12,2.58c-15,5-27.45,7.21-30.59,1.48l0,.56C3.55,272.11,17.59,271.56,32.63,266.2Z" transform="translate(-2.11 -2.11)"/><path class="cls-1" d="M60.52,210a6.75,6.75,0,0,0,.8,5.73c-1,.37-3.26,1.11-3.37,4.07v.37c.11,4.06,3.22,5.17,5.7,6.28a5.59,5.59,0,0,1,1.73.74h.06A26.8,26.8,0,0,1,70,230l6.07-6.1c0-.74-.1-1.48-.21-2.21a13.83,13.83,0,0,0-3.84-8.51,5.41,5.41,0,0,0-6.44-1.29,7.87,7.87,0,0,0-2.86,3H62.7l0,.18s.33,1.11,3.05,2.77A22.64,22.64,0,0,1,70,221.65a13.31,13.31,0,0,1,1.92,4.62c0-.19-.09-.19-.15-.37s-.11-.19-.17-.37c-.68-1.48-1.38-3.15-6.56-6.84a15.91,15.91,0,0,1-3.09-3h-.05a6.61,6.61,0,0,1-.87-5.55,7.59,7.59,0,0,1,4.07-4.62,12.47,12.47,0,0,1,10,0c4.18,2,6.73,5.36,7.56,11.83l.89-.92c-.87-5.92-3.77-10-8.41-12a12.54,12.54,0,0,0-10.61.37,8.26,8.26,0,0,0-4,5.18Z" transform="translate(-2.11 -2.11)"/><path class="cls-1" d="M22.9,277.1h0l2.39-2.4H23.05c-7-.19-20.64-3.33-20.91-8.32l0,.74C3.5,273.41,13.79,276.73,22.9,277.1Z" transform="translate(-2.11 -2.11)"/><path class="cls-1" d="M56.9,242.9c1.92-3.32,3.2-5.54,5.67-7a8.61,8.61,0,0,1,2.56-.92l2.25-2.41c-2.2-.74-5.77-1.66-8.87-2.4A43.08,43.08,0,0,0,49.56,229a17.57,17.57,0,0,0-8.48,1.85A7,7,0,0,0,38,236.06a6.81,6.81,0,0,0,.26,2c1,3.33,3.14,4.25,3.91,4.43-1,1.3-2.14,3-3.29,4.63-2.07,3-4.19,5.91-6,8.13-4.17,5-8.41,8-17,10.17-12.47,3.32-13.61-.74-13.68-.74l0,.18c2.14,3.7,7.44,3,13.85,1.67,8.86-1.85,13-5.73,17.31-10.91h0c1.77-2.22,3.92-5.36,6-8.32a89,89,0,0,1,5.86-7.76A26.36,26.36,0,0,1,49,237a40,40,0,0,1,5-1.48c-2.72,1.11-5.83,2.59-7.47,4.44A5.93,5.93,0,0,0,45,243.64a4.83,4.83,0,0,0,3.27,5,4.58,4.58,0,0,0,3.14,0l5.12-5.17C56.64,243.27,56.79,243.09,56.9,242.9Z" transform="translate(-2.11 -2.11)"/><path class="cls-1" d="M28.84,269.34a87.56,87.56,0,0,1-18.58,1.85h0s1.33.92,7.13,1.85a65.32,65.32,0,0,0,7.6.55,4.35,4.35,0,0,0,1.52-.18l5-5A18.88,18.88,0,0,1,28.84,269.34Z" transform="translate(-2.11 -2.11)"/><path class="cls-1" d="M20.78,279.14A1.36,1.36,0,0,1,20,279a2.82,2.82,0,0,0,.61.37Z" transform="translate(-2.11 -2.11)"/><path class="cls-1" d="M43.72,150.57c.44-.19.89-.37,1.31-.58H43.68a.6.6,0,0,1-.16.08A25.56,25.56,0,0,1,24.83,150H23.4A26.39,26.39,0,0,0,43.72,150.57Z" transform="translate(-2.11 -2.11)"/><path class="cls-1" d="M9.24,159.22a16.37,16.37,0,0,0,10.06,9.35,22.07,22.07,0,0,0,12.13.85A36.34,36.34,0,0,0,42,164.54c-2.57,2.09-5.07,3.85-7.3,5.4l-.48.33c-1.93,1.15-8.15,4.79-12.63,7.14-3.36,1.75-7.61,4.71-8.76,8.93-.29.92-1.07,4.62.73,7.58a6.4,6.4,0,0,0,3.21,2.77c-.59.74-1.15,1.29-1.68,2a28.85,28.85,0,0,0-6.27,15,8.25,8.25,0,0,0-1.66-.56,4.18,4.18,0,0,0-2.41.93c-1.46,1.11-1.87,3.69-.91,5.91a30.13,30.13,0,0,0,6.35,8.51,16.67,16.67,0,0,0,1.58,1.66l.87,1.11-.41-1.3a10.51,10.51,0,0,1-.33-5.17,12.69,12.69,0,0,1,1.4-3.51,9.07,9.07,0,0,0,.77-1.48,5.23,5.23,0,0,0,.59-4.44,2.63,2.63,0,0,0-1.89-1.48.66.66,0,0,0-.56-.18,11.89,11.89,0,0,0-1.81.18l-.14.19h0a17.78,17.78,0,0,0-.45,4.25,37.21,37.21,0,0,0,.56,8.13c-1.2-2.77-1.05-11.46-1.05-11.83a28.46,28.46,0,0,1,6.23-15.53c.56-.74,1.15-1.48,1.79-2.22.37.19.76.19,1.18.37h.32c0,1.48-.07,3.15-.11,5.18,0,1.85-.07,3.88-.11,6.1-.12,4.81-.32,8.69-1.12,16.45a51.92,51.92,0,0,1-3.86,15.16l-.57,1.3,1-.93c.3-.37,7.24-6.84,9.22-12.94a38.24,38.24,0,0,0,1.29-12.94,7.91,7.91,0,0,0,4.94-3.33c1.85-2.58.53-7,.48-7.21l-.28-.92-.24.92a6,6,0,0,1-2.4,3.33,3.78,3.78,0,0,1-3.13-.18c-1-.37-4-2.22-4.38-9.8,4.07.37,13.64-1.66,21-10.54-1.2,1.48-2.29,4.44-8.41,8.88A13.25,13.25,0,0,1,26.69,198c-.35,1.11,1.78,5.36,6.27,3.89,3.68-1.3,5.07-3.7,6.53-7.21a87.45,87.45,0,0,0,2.9-8.51c.44-1.37.92-2.92,1.51-4.77l.45-1.42-.91,1.18a20.6,20.6,0,0,1-5.93,4.64c-1.26.56-5.18,2.22-6.58,2.59-2.72.56-4.79.56-5.9,1.48a3.25,3.25,0,0,0-1.44,2.59,3,3,0,0,0,.74,2.4A2.59,2.59,0,0,0,26.42,196a21.07,21.07,0,0,1-6.92.92c0-.74,0-1.47,0-2.4a166.69,166.69,0,0,1,15.29-13.88,84.15,84.15,0,0,0,22-28.19L57.88,150H56.6c-.5,1.08-1.07,2.2-1.79,3.57h0c-7.76,15.09-16.17,22.67-20,25.9a208.24,208.24,0,0,0-15.23,14.27c0-.37,0-.55,0-.92.05-.93.16-1.67.29-2.59,1.24-7.65,5.53-12.24,9.56-15.7,1.44-1.22,3.2-2.47,5.08-3.78.37-.23.58-.34.59-.36l0,0c4.36-3,9.76-6.49,14.58-12.19A56.32,56.32,0,0,0,55.77,150H54.68a51.86,51.86,0,0,1-5.43,7.45c-4.29,4.9-10.93,9.76-17.95,11.47-6.51,1.59-17.86-.47-21.57-9.89a19.43,19.43,0,0,1-1.35-9H7.82a20.23,20.23,0,0,0,1.42,9.23Zm9.58,37.47H18.6c-.32,0-.63-.19-.92-.19a7.14,7.14,0,0,1,1.19-1.29C18.86,195.58,18.84,196.13,18.82,196.69Zm10.26-22.57c-4.11,3.53-8.49,8.19-9.74,16.1-.13.74-.23,1.66-.3,2.59-.06.37-.09.92-.13,1.48-.62.74-1.21,1.29-1.77,2A6.09,6.09,0,0,1,14,193.55h0a9.67,9.67,0,0,1-.69-7.21c1.1-3.88,5.24-6.75,8.51-8.47,2.53-1.33,5.64-3.07,8.21-4.55Z" transform="translate(-2.11 -2.11)"/><path class="cls-1" d="M59.8,150c-.28.87-.53,1.74-.76,2.59-2.2,8.49,2.43,16.1,2.46,16.18l.69,1.09L62,168.59a31.26,31.26,0,0,1-.2-7.34,35.51,35.51,0,0,1,2.85-10.2c.14-.35.29-.7.46-1.06Z" transform="translate(-2.11 -2.11)"/><path class="cls-2" d="M55.79,175.52,52,165.67c-2.74,6.21-3.53,13.51-4.27,22.33C46.9,197.8,41,202.79,41,202.79l-1.1.92,1.36-.55c.1,0,9-3,12.2-10.91.95-2.22.74-5.54.61-6.84a9.79,9.79,0,0,0,5.09,1.48,1.58,1.58,0,0,0,1.31,0A9,9,0,0,0,68.29,181l.16-.51-.51.18a12.52,12.52,0,0,1-4.44.57A8.46,8.46,0,0,1,55.79,175.52Z" transform="translate(-2.11 -2.11)"/><path class="cls-1" d="M9.72,167a31.47,31.47,0,0,1-2.2-3,11.59,11.59,0,0,0,.66,4.83,8.12,8.12,0,0,0,4.26,4.34s-1.08.32-2.49,2.92c-1.9,3.53.22,10,.22,10h0s-.22-5.82,4-9.67c2.9-2.6,15.93-5.39,15.93-5.39a81.06,81.06,0,0,1-8.93.68C17.52,171.73,12.91,170.94,9.72,167Z" transform="translate(-2.11 -2.11)"/><path class="cls-4" d="M40.34,155.34A27.38,27.38,0,0,0,48.8,150H47.25a22.68,22.68,0,0,1-10.17,3c-6.54.24-9.74-.48-13.82-2.2-.8-.34-1.41-.61-1.85-.84H18.86a6.2,6.2,0,0,0-2.16,2.46,8.87,8.87,0,0,0,1.23,9.39s3.07-5.58,9.13-5.19c7.29.48,9.89-.13,13.28-1.31Z" transform="translate(-2.11 -2.11)"/><path class="cls-1" d="M113.58,286.72a10,10,0,0,1-7.19-.74h0a6.7,6.7,0,0,1-2.63-3.15l1.92-1.66a5.14,5.14,0,0,1,1.52-.19,13.11,13.11,0,0,0,2.66-.36c7.84-1.3,12.5-5.55,16-9.62l.79-1.11c-1.48,2.59-3.23,5.73-4.56,8.32C120.42,281.35,117.53,285.61,113.58,286.72Z" transform="translate(-2.11 -2.11)"/><path class="cls-1" d="M103.3,281.35s0-.18,0-.18h1.61c-.44.37-.89.74-1.31,1.11A4.52,4.52,0,0,1,103.3,281.35Z" transform="translate(-2.11 -2.11)"/><path class="cls-1" d="M33.88,267.31c.24-.56.49-1.3.74-1.85l4.22-4.25a47,47,0,0,0-2.55,6.1c-5,15-7.21,27.35-1.52,30.5h-.53C27.84,296.51,28.49,282.46,33.88,267.31Z" transform="translate(-2.11 -2.11)"/><path class="cls-1" d="M90,239.39a6.29,6.29,0,0,1-5.77-.74,4.15,4.15,0,0,1-4,3.33h-.37c-4.07,0-5.27-3.14-6.25-5.55a14.77,14.77,0,0,0-.72-1.84h0A23,23,0,0,0,70,230l6.07-6.1c.77,0,1.55.19,2.33.19,4.62.74,6.84,2.4,8.41,3.88a5.65,5.65,0,0,1,1.31,6.47,8.09,8.09,0,0,1-2.88,2.77l-.1.19-.11-.19c-.11,0-1.16-.18-2.9-2.95A21.88,21.88,0,0,0,78.31,230a16.31,16.31,0,0,0-4.53-1.84.31.31,0,0,1,.31.18h.37c1.52.74,3.09,1.48,6.8,6.66a17.13,17.13,0,0,0,3,3.14h.09a6.85,6.85,0,0,0,5.55.92A8.33,8.33,0,0,0,94.39,235a12.1,12.1,0,0,0,.07-10c-2-4.25-5.4-6.84-11.81-7.58l.89-.92c6,.92,9.91,3.7,11.92,8.32a12.39,12.39,0,0,1-.31,10.72A7.71,7.71,0,0,1,90,239.39Z" transform="translate(-2.11 -2.11)"/><path class="cls-1" d="M22.92,277.1h0l2.39-2.4c0,.74,0,1.48.05,2.22.17,7,3.35,20.7,8.3,20.89h-.81C26.68,296.51,23.35,286.16,22.92,277.1Z" transform="translate(-2.11 -2.11)"/><path class="cls-1" d="M57.18,243.09c3.23-1.85,5.38-3.14,6.89-5.73a9.31,9.31,0,0,0,1.06-2.4l2.25-2.41c.72,2.22,1.81,5.92,2.52,8.88a50.73,50.73,0,0,1,1,9A16.16,16.16,0,0,1,69,259c-.47.55-2.2,2.95-5.14,2.95a7.09,7.09,0,0,1-1.93-.18c-3.4-1.11-4.25-3.14-4.45-3.88-1.41.92-3,2-4.64,3.14-2.94,2.22-6,4.25-8.12,6.1-5.06,4.07-7.93,8.32-10.2,17-3.29,12.38.76,13.49.76,13.68H35c-3.55-2.22-2.84-7.4-1.48-13.87,1.83-8.87,5.7-12.94,10.85-17.19l0-.18c2.15-1.67,5.2-3.89,8.15-5.92a74.65,74.65,0,0,0,7.88-5.91A16.84,16.84,0,0,0,63,251a51.21,51.21,0,0,0,1.57-5c-1.12,2.58-2.69,5.73-4.47,7.39a6.88,6.88,0,0,1-3.7,1.66,5.22,5.22,0,0,1-5-3.32,5.6,5.6,0,0,1,0-3.15l5.12-5.17c.22-.19.44-.19.67-.37Z" transform="translate(-2.11 -2.11)"/><path class="cls-1" d="M30.67,271.19a82.71,82.71,0,0,0-1.91,18.48h0s-.82-1.29-1.69-7a56.73,56.73,0,0,1-.57-7.58c0-.56,0-1.11,0-1.66l5-5A22.55,22.55,0,0,0,30.67,271.19Z" transform="translate(-2.11 -2.11)"/><path class="cls-1" d="M20.78,279.14c.13.55.2.92.2.92a4.65,4.65,0,0,0-.35-.74Z" transform="translate(-2.11 -2.11)"/><path class="cls-1" d="M149.44,256.21a10.6,10.6,0,0,0,.55-1.29v1.48h-.05a26.13,26.13,0,0,0,.05,18.85v1.3A26.46,26.46,0,0,1,149.44,256.21Z" transform="translate(-2.11 -2.11)"/><path class="cls-1" d="M140.79,290.78a16.43,16.43,0,0,1-9.37-10.16,21.93,21.93,0,0,1-.85-12,37.73,37.73,0,0,1,4.89-10.54c-2.1,2.59-3.84,5-5.41,7.21l-.33.56c-1.13,1.85-4.79,8.13-7.12,12.57-1.76,3.32-4.73,7.58-8.89,8.69a9.65,9.65,0,0,1-7.6-.74,6.18,6.18,0,0,1-2.77-3.15c-.69.56-1.37,1.11-2,1.67a27.73,27.73,0,0,1-15,6.28,3.61,3.61,0,0,1,.53,1.67,3.37,3.37,0,0,1-.79,2.4c-1.13,1.48-3.76,1.85-5.9.92-3.72-1.66-6.54-4.43-8.63-6.28a12.33,12.33,0,0,0-1.7-1.67l-1-.92,1.29.55s3,.93,5.25.19a11.27,11.27,0,0,0,3.41-1.29,8.29,8.29,0,0,1,1.44-.74,5.22,5.22,0,0,1,4.56-.56,2.36,2.36,0,0,1,1.52,1.85c0,.19.07.37.09.55a6.82,6.82,0,0,1-.24,1.85h0l-.12.19a33.4,33.4,0,0,1-4.16.37,40.72,40.72,0,0,1-8.27-.56c2.89,1.11,11.48,1.11,11.93,1.11A29.93,29.93,0,0,0,101,284.5a21.67,21.67,0,0,0,2.14-1.85q-.19-.56-.33-1.11c0-.19,0-.19,0-.37-1.45,0-3.17.18-5.16.18h-6c-4.92.19-8.82.37-16.51,1.11a55.66,55.66,0,0,0-15.19,3.89l-1.24.55.92-.92c.28-.37,6.81-7.21,12.94-9.25,5.48-1.66,11.61-1.29,12.93-1.29a7.34,7.34,0,0,1,3.23-4.81c2.63-2,7.08-.55,7.28-.55l.89.18-.9.37A5.21,5.21,0,0,0,92.67,273a3.8,3.8,0,0,0,0,3.14c.4.92,2.25,3.88,9.92,4.25-.36-4.07,1.59-13.68,10.45-21.07-1.44,1.29-4.36,2.4-8.89,8.5a13,13,0,0,0-2.22,5.36c-1,.37-5.32-1.66-3.75-6.1,1.27-3.7,3.68-5.18,7.17-6.65,2.38-.93,4.68-1.67,8.47-2.78,1.36-.55,2.92-.92,4.78-1.66l1.41-.37-1.17.92s-2.14,1.67-4.56,5.92a40.63,40.63,0,0,0-2.61,6.65c-.57,2.59-.63,4.63-1.51,5.73a3.24,3.24,0,0,1-2.61,1.48,2.84,2.84,0,0,1-2.44-.74,3,3,0,0,1-1.09-2,19.45,19.45,0,0,0-.87,6.84,5,5,0,0,0,2.37,0,179.65,179.65,0,0,0,13.88-15.16,81.31,81.31,0,0,1,28.19-22c.83-.37,1.63-.74,2.38-1.11v1.3a25.5,25.5,0,0,0-3.55,1.66h0c-15.1,7.77-22.68,16.27-25.91,20.15-4.88,5.73-10.13,11.28-14.18,15.16h.79a12,12,0,0,0,2.63-.37c7.67-1.11,12.24-5.55,15.69-9.43,1.24-1.48,2.5-3.32,3.81-5.17.2-.37.33-.56.33-.56h.06c3.05-4.25,6.49-9.8,12.18-14.6a79.69,79.69,0,0,1,8.15-6.1v1.11a68.33,68.33,0,0,0-7.45,5.36c-4.89,4.43-9.74,11.09-11.46,18.11-1.57,6.47.47,17.75,9.91,21.45a20.16,20.16,0,0,0,9,1.48v.55a20.17,20.17,0,0,1-9.2-1.48Zm-37.53-9.61h0s0,.18,0,.18a4.52,4.52,0,0,0,.26.93c.42-.37.87-.74,1.31-1.11ZM125.89,271c-3.53,4.07-8.19,8.32-16,9.62a13.11,13.11,0,0,1-2.66.36,5.14,5.14,0,0,0-1.52.19l-1.92,1.66a6.7,6.7,0,0,0,2.63,3.15h0a10,10,0,0,0,7.19.74c4-1.11,6.84-5.37,8.54-8.51,1.33-2.59,3.08-5.73,4.56-8.32Z" transform="translate(-2.11 -2.11)"/><path class="cls-1" d="M150,240.13a13.09,13.09,0,0,1-2.57.74c-8.5,2.22-16.1-2.4-16.19-2.4l-1.09-.56h1.28a23.45,23.45,0,0,0,7.33.37,40.69,40.69,0,0,0,10.21-3c.35-.18.7-.18,1-.36Z" transform="translate(-2.11 -2.11)"/><path class="cls-2" d="M124.47,244.2l9.85,3.88c-6.19,2.59-13.5,3.51-22.41,4.25A22.44,22.44,0,0,0,97.24,259l-.91,1.11.44-1.3c0-.18,3.11-9.06,10.91-12.2a15.3,15.3,0,0,1,6.86-.55,13.34,13.34,0,0,1-1.52-5.18,9.26,9.26,0,0,1,0-1.29c.46-6.1,5.9-7.77,5.95-8h.52l-.18.37a12.31,12.31,0,0,0-.6,4.43,8.54,8.54,0,0,0,5.74,7.77Z" transform="translate(-2.11 -2.11)"/><path class="cls-1" d="M133,290.23a21.07,21.07,0,0,0,3,2.22,14.25,14.25,0,0,1-4.84-.56,8.06,8.06,0,0,1-4.32-4.25s-.34.92-2.94,2.4c-3.53,1.85-10-.18-10-.18h0s5.81.18,9.63-4.07c2.63-3,5.42-15.9,5.42-15.9a80.93,80.93,0,0,0-.7,8.88c0,3.69.85,8.32,4.73,11.46Z" transform="translate(-2.11 -2.11)"/><path class="cls-4" d="M144.67,259.73a27.06,27.06,0,0,1,5.32-8.51v1.48a23.42,23.42,0,0,0-3,10.17c-.22,6.65.48,9.8,2.2,13.86.34.74.61,1.48.83,1.85v2.59a6.61,6.61,0,0,1-2.45,2.22,8.86,8.86,0,0,1-9.38-1.3s5.59-3.14,5.2-9.24c-.48-7.21.11-9.8,1.31-13.12Z" transform="translate(-2.11 -2.11)"/><path class="cls-1" d="M113.58,13.34a9.64,9.64,0,0,0-7.19.68h0a6.27,6.27,0,0,0-2.63,3.12c.63.56,1.28,1.15,1.92,1.77.67,0,1.17.07,1.52.13.91.07,1.79.17,2.66.3,7.84,1.25,12.5,5.63,16,9.74.26.31.52.65.79,1-1.48-2.57-3.23-5.68-4.56-8.21-1.7-3.27-4.59-7.41-8.54-8.51Z" transform="translate(-2.11 -2.11)"/><path class="cls-1" d="M103.3,18.6c0,.07,0,.14,0,.22h0l1.61.05c-.44-.41-.89-.81-1.31-1.19C103.47,18,103.37,18.28,103.3,18.6Z" transform="translate(-2.11 -2.11)"/><path class="cls-1" d="M33.88,32.63c.24.66.49,1.33.74,2l4.22,4.22a53,53,0,0,1-2.55-6.12c-5-15-7.21-27.45-1.52-30.59l-.53,0C27.84,3.55,28.49,17.59,33.88,32.63Z" transform="translate(-2.11 -2.11)"/><path class="cls-1" d="M90,60.52a7,7,0,0,0-5.77.8,4.25,4.25,0,0,0-4-3.37h-.37c-4.07.11-5.27,3.22-6.25,5.7a18.11,18.11,0,0,1-.72,1.73l0,.06A20.8,20.8,0,0,1,70,70l6.07,6.07c.77,0,1.55-.1,2.33-.21,4.62-.61,6.84-2.27,8.41-3.84a5.59,5.59,0,0,0,1.31-6.44,8.69,8.69,0,0,0-2.88-2.86l-.1-.06-.11,0c-.11,0-1.16.33-2.9,3.05A19,19,0,0,1,78.31,70a13.39,13.39,0,0,1-4.53,1.92l.31-.15.37-.17c1.52-.68,3.09-1.38,6.8-6.56a16.25,16.25,0,0,1,3-3.09l.09-.05A6.57,6.57,0,0,1,89.86,61a7.51,7.51,0,0,1,4.53,4.07,12,12,0,0,1,.07,10c-2,4.18-5.4,6.73-11.81,7.56l.89.89c6-.87,9.91-3.77,11.92-8.41a12.15,12.15,0,0,0-.31-10.61A8.06,8.06,0,0,0,90,60.52Z" transform="translate(-2.11 -2.11)"/><path class="cls-1" d="M22.92,22.9v0l2.39,2.39c0-.72,0-1.48.05-2.26.17-7,3.35-20.64,8.3-20.91l-.81,0C26.68,3.5,23.35,13.79,22.92,22.9Z" transform="translate(-2.11 -2.11)"/><path class="cls-1" d="M57.18,56.9c3.23,1.92,5.38,3.2,6.89,5.67a11.41,11.41,0,0,1,1.06,2.56l2.25,2.25c.72-2.2,1.81-5.77,2.52-8.87a49.61,49.61,0,0,0,1-8.95c0-3.51-.67-6.6-1.92-8.48A6.78,6.78,0,0,0,63.89,38a6.19,6.19,0,0,0-1.93.26c-3.4,1-4.25,3.14-4.45,3.91-1.41-1-3-2.14-4.64-3.29-2.94-2.07-6-4.19-8.12-6-5.06-4.17-7.93-8.41-10.2-17-3.29-12.47.76-13.61.76-13.68l-.3,0C31.46,4.33,32.17,9.63,33.53,16c1.83,8.86,5.7,13,10.85,17.31h0c2.15,1.77,5.2,3.92,8.15,6a97.36,97.36,0,0,1,7.88,5.86A17.76,17.76,0,0,1,63,49a40.2,40.2,0,0,1,1.57,5c-1.12-2.72-2.69-5.83-4.47-7.47A5.65,5.65,0,0,0,56.36,45a4.91,4.91,0,0,0-5,3.27,5.58,5.58,0,0,0,0,3.14l5.12,5.12c.22.13.44.28.67.39Z" transform="translate(-2.11 -2.11)"/><path class="cls-1" d="M30.67,28.84a83.91,83.91,0,0,1-1.91-18.58h0s-.82,1.33-1.69,7.13a56.32,56.32,0,0,0-.57,7.6c0,.52,0,1,0,1.52l5,5A26.59,26.59,0,0,1,30.67,28.84Z" transform="translate(-2.11 -2.11)"/><path class="cls-1" d="M20.78,20.78,21,20l-.35.61Z" transform="translate(-2.11 -2.11)"/><path class="cls-1" d="M91.63,88.57" transform="translate(-2.11 -2.11)"/><path class="cls-1" d="M149.44,43.72c.17.44.37.89.55,1.31V43.68l-.05-.16A25.71,25.71,0,0,1,150,24.83V23.4A26.43,26.43,0,0,0,149.44,43.72Z" transform="translate(-2.11 -2.11)"/><path class="cls-1" d="M140.79,9.24a16.44,16.44,0,0,0-9.37,10.06,22.26,22.26,0,0,0-.85,12.13A37.14,37.14,0,0,0,135.46,42c-2.1-2.57-3.84-5.07-5.41-7.3-.11-.15-.22-.32-.33-.48-1.13-1.93-4.79-8.15-7.12-12.63-1.76-3.36-4.73-7.61-8.89-8.76-1-.29-4.59-1.07-7.6.73a6.8,6.8,0,0,0-2.77,3.21q-1-.88-2-1.68a29.34,29.34,0,0,0-15-6.27,3.52,3.52,0,0,0,.53-1.66A3.58,3.58,0,0,0,86,4.75c-1.13-1.46-3.76-1.87-5.9-.91a31.31,31.31,0,0,0-8.63,6.35c-.65.62-1.21,1.16-1.7,1.58l-1,.87L70,12.23s3-1,5.25-.33a13.55,13.55,0,0,1,3.41,1.4c.38.22.85.47,1.44.77a5.5,5.5,0,0,0,4.56.59,2.75,2.75,0,0,0,1.52-1.89,4.1,4.1,0,0,0,.09-.56,5.89,5.89,0,0,0-.24-1.81l0-.14-.12,0a16.05,16.05,0,0,0-4.16-.45,38.47,38.47,0,0,0-8.27.56c2.89-1.2,11.48-1.05,11.93-1.05A28.57,28.57,0,0,1,101,15.51c.7.56,1.42,1.15,2.14,1.79a9.63,9.63,0,0,0-.33,1.18,3.06,3.06,0,0,0,0,.32l-5.16-.11-6-.11c-4.92-.12-8.82-.32-16.51-1.12A53.42,53.42,0,0,1,59.84,13.6L58.6,13l.92,1c.28.3,6.81,7.24,12.94,9.22a38.05,38.05,0,0,0,12.93,1.29,7.67,7.67,0,0,0,3.23,4.94c2.63,1.85,7.08.53,7.28.48l.89-.28-.9-.24A5.75,5.75,0,0,1,92.67,27a3.79,3.79,0,0,1,0-3.13c.4-1,2.25-4,9.92-4.38-.36,4.07,1.59,13.64,10.45,21-1.44-1.2-4.36-2.29-8.89-8.41A12.87,12.87,0,0,1,102,26.69c-1-.35-5.32,1.78-3.75,6.27,1.27,3.68,3.68,5.07,7.17,6.53,2.38,1,4.68,1.71,8.47,2.9,1.36.44,2.92.92,4.78,1.51l1.41.45-1.17-.91a20.15,20.15,0,0,1-4.56-5.93,41.33,41.33,0,0,1-2.61-6.58c-.57-2.72-.63-4.79-1.51-5.9a3.64,3.64,0,0,0-2.61-1.44,3.19,3.19,0,0,0-2.44.74A3,3,0,0,0,104,26.42a20.07,20.07,0,0,1-.87-6.92c.74,0,1.52,0,2.37,0a174.25,174.25,0,0,1,13.88,15.29,83.82,83.82,0,0,0,28.19,22L150,57.88V56.6c-1.05-.5-2.18-1.07-3.55-1.79h0c-15.1-7.76-22.68-16.17-25.91-20-4.88-5.8-10.13-11.31-14.18-15.23.26,0,.52,0,.79,0,.91.05,1.78.16,2.63.29,7.67,1.24,12.24,5.53,15.69,9.56,1.24,1.44,2.5,3.2,3.81,5.08.2.37.33.58.33.59l.06,0c3.05,4.36,6.49,9.76,12.18,14.58A58.39,58.39,0,0,0,150,55.77V54.68a54.8,54.8,0,0,1-7.45-5.43C137.65,45,132.8,38.32,131.08,31.3c-1.57-6.51.47-17.86,9.91-21.57a19.29,19.29,0,0,1,9-1.35V7.82A20.1,20.1,0,0,0,140.79,9.24Zm-37.53,9.58h0c0-.08,0-.15,0-.22.07-.32.17-.63.26-.92.42.38.87.78,1.31,1.19Zm22.63,10.26c-3.53-4.11-8.19-8.49-16-9.74-.87-.13-1.75-.23-2.66-.3-.35-.06-.85-.09-1.52-.13-.64-.62-1.29-1.21-1.92-1.77A6.25,6.25,0,0,1,106.39,14h0a9.65,9.65,0,0,1,7.19-.69c4,1.1,6.84,5.24,8.54,8.51,1.33,2.53,3.08,5.64,4.56,8.21C126.41,29.73,126.15,29.39,125.89,29.08Z" transform="translate(-2.11 -2.11)"/><path class="cls-1" d="M150,59.8c-.86-.28-1.71-.53-2.57-.76-8.5-2.2-16.1,2.43-16.19,2.46l-1.09.69,1.28-.19a31.09,31.09,0,0,1,7.33-.2A35.74,35.74,0,0,1,149,64.65c.35.14.7.29,1,.46Z" transform="translate(-2.11 -2.11)"/><path class="cls-2" d="M124.47,55.79,134.32,52c-6.19-2.74-13.5-3.53-22.41-4.27C102.25,46.9,97.29,41,97.24,41l-.91-1.1.44,1.36c0,.1,3.11,9,10.91,12.2,2.22.95,5.56.74,6.86.61A12.85,12.85,0,0,0,113,59.12a9.5,9.5,0,0,0,0,1.31A9.19,9.19,0,0,0,119,68.29l.52.16-.18-.51a12.39,12.39,0,0,1-.6-4.44,8.52,8.52,0,0,1,5.74-7.71Z" transform="translate(-2.11 -2.11)"/><path class="cls-1" d="M133,9.72a30.72,30.72,0,0,1,3-2.2,11.66,11.66,0,0,0-4.84.66,8.12,8.12,0,0,0-4.32,4.26s-.34-1.08-2.94-2.49c-3.53-1.9-10,.22-10,.22h0s5.81-.22,9.63,4c2.63,2.9,5.42,15.93,5.42,15.93a79.09,79.09,0,0,1-.7-8.93c0-3.66.85-8.28,4.73-11.46Z" transform="translate(-2.11 -2.11)"/><path class="cls-3" d="M144.67,40.34A27.5,27.5,0,0,0,150,48.8V47.25a22.81,22.81,0,0,1-3-10.17c-.22-6.54.48-9.74,2.2-13.82.34-.8.61-1.41.83-1.85V18.86a6,6,0,0,0-2.45-2.16,8.87,8.87,0,0,0-9.38,1.23s5.59,3.07,5.2,9.13c-.48,7.29.11,9.89,1.31,13.28Z" transform="translate(-2.11 -2.11)"/><path class="cls-1" d="M13.34,113.58a9.64,9.64,0,0,1,.68-7.19h0a6.27,6.27,0,0,1,3.12-2.63c.56.63,1.15,1.28,1.77,1.92,0,.67.07,1.17.13,1.52.07.91.17,1.79.3,2.66,1.25,7.84,5.63,12.5,9.74,16,.31.26.65.52,1,.79-2.57-1.48-5.68-3.23-8.21-4.56-3.27-1.7-7.41-4.59-8.51-8.54Z" transform="translate(-2.11 -2.11)"/><path class="cls-1" d="M18.6,103.3l.22,0h0c0,.59,0,1.13.05,1.61-.41-.44-.81-.89-1.19-1.31C18,103.47,18.28,103.37,18.6,103.3Z" transform="translate(-2.11 -2.11)"/><path class="cls-1" d="M32.63,33.88l2,.74,4.22,4.22a53,53,0,0,0-6.12-2.55c-15-5-27.45-7.21-30.59-1.52l0-.53C3.55,27.84,17.59,28.49,32.63,33.88Z" transform="translate(-2.11 -2.11)"/><path class="cls-1" d="M60.52,90a7,7,0,0,1,.8-5.77,4.25,4.25,0,0,1-3.37-4v-.37c.11-4.07,3.22-5.27,5.7-6.25a18.11,18.11,0,0,0,1.73-.72l.06,0A20.8,20.8,0,0,0,70,70l6.07,6.07c0,.77-.1,1.55-.21,2.33-.61,4.62-2.27,6.84-3.84,8.41a5.59,5.59,0,0,1-6.44,1.31,8.69,8.69,0,0,1-2.86-2.88l-.06-.1,0-.11c0-.11.33-1.16,3.05-2.9A19,19,0,0,0,70,78.31a13.39,13.39,0,0,0,1.92-4.53c0,.09-.09.2-.15.31s-.11.24-.17.37c-.68,1.52-1.38,3.09-6.56,6.8a16.25,16.25,0,0,0-3.09,3l-.05.09A6.57,6.57,0,0,0,61,89.86a7.51,7.51,0,0,0,4.07,4.53,12,12,0,0,0,10,.07c4.18-2,6.73-5.4,7.56-11.81l.89.89c-.87,6-3.77,9.91-8.41,11.92a12.15,12.15,0,0,1-10.61-.31A8.06,8.06,0,0,1,60.52,90Z" transform="translate(-2.11 -2.11)"/><path class="cls-1" d="M22.9,22.92h0l2.39,2.39c-.72,0-1.48,0-2.26.05-7,.17-20.64,3.35-20.91,8.3l0-.81C3.5,26.68,13.79,23.35,22.9,22.92Z" transform="translate(-2.11 -2.11)"/><path class="cls-1" d="M56.9,57.18c1.92,3.23,3.2,5.38,5.67,6.89a11.41,11.41,0,0,0,2.56,1.06l2.25,2.25c-2.2.72-5.77,1.81-8.87,2.52a49.61,49.61,0,0,1-8.95,1c-3.51,0-6.6-.67-8.48-1.92A6.78,6.78,0,0,1,38,63.89,6.19,6.19,0,0,1,38.27,62c1-3.4,3.14-4.25,3.91-4.45-1-1.41-2.14-3-3.29-4.64-2.07-2.94-4.19-6-6-8.12-4.17-5.06-8.41-7.93-17-10.2-12.47-3.29-13.61.76-13.68.76l0-.3C4.33,31.46,9.63,32.17,16,33.53c8.86,1.83,13,5.7,17.31,10.85v0c1.77,2.15,3.92,5.2,6,8.15a97.36,97.36,0,0,0,5.86,7.88A17.76,17.76,0,0,0,49,63a40.2,40.2,0,0,0,5,1.57c-2.72-1.12-5.83-2.69-7.47-4.47A5.65,5.65,0,0,1,45,56.36a4.91,4.91,0,0,1,3.27-5,5.58,5.58,0,0,1,3.14,0l5.12,5.12c.13.22.28.44.39.67Z" transform="translate(-2.11 -2.11)"/><path class="cls-1" d="M28.84,30.67a83.91,83.91,0,0,0-18.58-1.91v0s1.33-.82,7.13-1.69a56.32,56.32,0,0,1,7.6-.57c.52,0,1,0,1.52,0l5,5A26.59,26.59,0,0,0,28.84,30.67Z" transform="translate(-2.11 -2.11)"/><path class="cls-1" d="M20.78,20.78,20,21l.61-.35Z" transform="translate(-2.11 -2.11)"/><path class="cls-1" d="M43.72,149.44c.44.17.89.37,1.31.55H43.68l-.16-.05a25.71,25.71,0,0,0-18.69.05H23.4A26.43,26.43,0,0,1,43.72,149.44Z" transform="translate(-2.11 -2.11)"/><path class="cls-1" d="M9.24,140.79a16.44,16.44,0,0,1,10.06-9.37,22.26,22.26,0,0,1,12.13-.85A37.14,37.14,0,0,1,42,135.46c-2.57-2.1-5.07-3.84-7.3-5.41l-.48-.33c-1.93-1.13-8.15-4.79-12.63-7.12-3.36-1.76-7.61-4.73-8.76-8.89-.29-1-1.07-4.59.73-7.6a6.8,6.8,0,0,1,3.21-2.77q-.88-1-1.68-2a29.34,29.34,0,0,1-6.27-15,3.52,3.52,0,0,1-1.66.53A3.58,3.58,0,0,1,4.75,86c-1.46-1.13-1.87-3.76-.91-5.9a31.31,31.31,0,0,1,6.35-8.63c.62-.65,1.16-1.21,1.58-1.7l.87-1L12.23,70s-1,3-.33,5.25a13.55,13.55,0,0,0,1.4,3.41c.22.38.47.85.77,1.44a5.5,5.5,0,0,1,.59,4.56,2.75,2.75,0,0,1-1.89,1.52,4.1,4.1,0,0,1-.56.09,5.89,5.89,0,0,1-1.81-.24l-.14,0,0-.12a16.05,16.05,0,0,1-.45-4.16,38.47,38.47,0,0,1,.56-8.27c-1.2,2.89-1.05,11.48-1.05,11.93A28.57,28.57,0,0,0,15.51,101c.56.7,1.15,1.42,1.79,2.14a9.63,9.63,0,0,1,1.18-.33l.32,0c0-1.45-.07-3.17-.11-5.16,0-1.79-.07-3.81-.11-6-.12-4.92-.32-8.82-1.12-16.51A53.42,53.42,0,0,0,13.6,59.84L13,58.6l1,.92c.3.28,7.24,6.81,9.22,12.94a38.05,38.05,0,0,1,1.29,12.93,7.67,7.67,0,0,1,4.94,3.23c1.85,2.63.53,7.08.48,7.28l-.28.89-.24-.9A5.75,5.75,0,0,0,27,92.67a3.79,3.79,0,0,0-3.13,0c-1,.4-4,2.25-4.38,9.92,4.07-.36,13.64,1.59,21,10.45-1.2-1.44-2.29-4.36-8.41-8.89A12.87,12.87,0,0,0,26.69,102c-.35-1,1.78-5.32,6.27-3.75,3.68,1.27,5.07,3.68,6.53,7.17,1,2.38,1.71,4.68,2.9,8.47.44,1.36.92,2.92,1.51,4.78l.45,1.41-.91-1.17a20.15,20.15,0,0,0-5.93-4.56,41.33,41.33,0,0,0-6.58-2.61c-2.72-.57-4.79-.63-5.9-1.51a3.64,3.64,0,0,1-1.44-2.61,3.19,3.19,0,0,1,.74-2.44A3,3,0,0,1,26.42,104a20.07,20.07,0,0,0-6.92-.87c0,.74,0,1.52,0,2.37a174.25,174.25,0,0,0,15.29,13.88,83.82,83.82,0,0,1,22,28.19L57.88,150H56.6c-.5-1.05-1.07-2.18-1.79-3.55h0c-7.76-15.1-16.17-22.68-20-25.91-5.8-4.88-11.31-10.13-15.23-14.18,0,.26,0,.52,0,.79.05.91.16,1.78.29,2.63,1.24,7.67,5.53,12.24,9.56,15.69,1.44,1.24,3.2,2.5,5.08,3.81l.59.33,0,.06c4.36,3.05,9.76,6.49,14.58,12.18A58.39,58.39,0,0,1,55.77,150H54.68a54.8,54.8,0,0,0-5.43-7.45C45,137.65,38.32,132.8,31.3,131.08c-6.51-1.57-17.86.47-21.57,9.91a19.29,19.29,0,0,0-1.35,9H7.82A20.1,20.1,0,0,1,9.24,140.79Zm9.58-37.53h0l-.22,0c-.32.07-.63.17-.92.26.38.42.78.87,1.19,1.31C18.86,104.39,18.84,103.85,18.82,103.26Zm10.26,22.63c-4.11-3.53-8.49-8.19-9.74-16-.13-.87-.23-1.75-.3-2.66-.06-.35-.09-.85-.13-1.52-.62-.64-1.21-1.29-1.77-1.92A6.25,6.25,0,0,0,14,106.39h0a9.65,9.65,0,0,0-.69,7.19c1.1,4,5.24,6.84,8.51,8.54,2.53,1.33,5.64,3.08,8.21,4.56C29.73,126.41,29.39,126.15,29.08,125.89Z" transform="translate(-2.11 -2.11)"/><path class="cls-1" d="M59.8,150c-.28-.86-.53-1.71-.76-2.57-2.2-8.5,2.43-16.1,2.46-16.19l.69-1.09L62,131.42a31.09,31.09,0,0,0-.2,7.33A35.74,35.74,0,0,0,64.65,149c.14.35.29.7.46,1Z" transform="translate(-2.11 -2.11)"/><path class="cls-2" d="M55.79,124.47,52,134.32c-2.74-6.19-3.53-13.5-4.27-22.41C46.9,102.25,41,97.29,41,97.24l-1.1-.91,1.36.44c.1,0,9,3.11,12.2,10.91.95,2.22.74,5.56.61,6.86A12.85,12.85,0,0,1,59.12,113a9.5,9.5,0,0,1,1.31,0A9.19,9.19,0,0,1,68.29,119l.16.52-.51-.18a12.39,12.39,0,0,0-4.44-.6,8.52,8.52,0,0,0-7.71,5.74Z" transform="translate(-2.11 -2.11)"/><path class="cls-1" d="M9.72,133a30.72,30.72,0,0,0-2.2,3,11.66,11.66,0,0,1,.66-4.84,8.12,8.12,0,0,1,4.26-4.32s-1.08-.34-2.49-2.94c-1.9-3.53.22-10,.22-10h0s-.22,5.81,4,9.63c2.9,2.63,15.93,5.42,15.93,5.42a79.09,79.09,0,0,0-8.93-.7c-3.66,0-8.28.85-11.46,4.73Z" transform="translate(-2.11 -2.11)"/><path class="cls-3" d="M40.34,144.67A27.5,27.5,0,0,1,48.8,150H47.25a22.81,22.81,0,0,0-10.17-3c-6.54-.22-9.74.48-13.82,2.2-.8.34-1.41.61-1.85.83H18.86a6,6,0,0,1-2.16-2.45,8.87,8.87,0,0,1,1.23-9.38s3.07,5.59,9.13,5.2c7.29-.48,9.89.11,13.28,1.31Z" transform="translate(-2.11 -2.11)"/><path class="cls-1" d="M286.72,113.58a10,10,0,0,0-.74-7.19h0a6.7,6.7,0,0,0-3.15-2.63l-1.66,1.92a5.14,5.14,0,0,0-.19,1.52,13.11,13.11,0,0,1-.36,2.66c-1.3,7.84-5.55,12.5-9.62,16l-1.11.79c2.59-1.48,5.73-3.23,8.32-4.56C281.35,120.42,285.61,117.53,286.72,113.58Z" transform="translate(-2.11 -2.11)"/><path class="cls-1" d="M281.35,103.3s-.18,0-.18,0h0v1.61c.37-.44.74-.89,1.11-1.31A4.52,4.52,0,0,0,281.35,103.3Z" transform="translate(-2.11 -2.11)"/><path class="cls-1" d="M267.31,33.88c-.56.24-1.3.49-1.85.74l-4.25,4.22a47,47,0,0,1,6.1-2.55c15-5,27.35-7.21,30.5-1.52v-.53C296.51,27.84,282.46,28.49,267.31,33.88Z" transform="translate(-2.11 -2.11)"/><path class="cls-1" d="M239.39,90a6.29,6.29,0,0,0-.74-5.77,4.15,4.15,0,0,0,3.33-4v-.37c0-4.07-3.14-5.27-5.55-6.25a14.77,14.77,0,0,1-1.84-.72v0A23,23,0,0,1,230,70l-6.1,6.07c0,.77.19,1.55.19,2.33.74,4.62,2.4,6.84,3.88,8.41a5.65,5.65,0,0,0,6.47,1.31,8.09,8.09,0,0,0,2.77-2.88l.19-.1-.19-.11c0-.11-.18-1.16-2.95-2.9A21.88,21.88,0,0,1,230,78.31a16.31,16.31,0,0,1-1.84-4.53.31.31,0,0,0,.18.31v.37c.74,1.52,1.48,3.09,6.66,6.8a17.13,17.13,0,0,1,3.14,3v.09a6.85,6.85,0,0,1,.92,5.55A8.33,8.33,0,0,1,235,94.39a12.1,12.1,0,0,1-10,.07c-4.25-2-6.84-5.4-7.58-11.81l-.92.89c.92,6,3.7,9.91,8.32,11.92a12.39,12.39,0,0,0,10.72-.31A7.71,7.71,0,0,0,239.39,90Z" transform="translate(-2.11 -2.11)"/><path class="cls-1" d="M277.1,22.92h0l-2.4,2.39c.74,0,1.48,0,2.22.05,7,.17,20.7,3.35,20.89,8.3v-.81C296.51,26.68,286.16,23.35,277.1,22.92Z" transform="translate(-2.11 -2.11)"/><path class="cls-1" d="M243.09,57.18c-1.85,3.23-3.14,5.38-5.73,6.89a9.31,9.31,0,0,1-2.4,1.06l-2.41,2.25c2.22.72,5.92,1.81,8.88,2.52a50.73,50.73,0,0,0,9,1A16.16,16.16,0,0,0,259,69c.55-.47,2.95-2.2,2.95-5.14a7.09,7.09,0,0,0-.18-1.93c-1.11-3.4-3.14-4.25-3.88-4.45.92-1.41,2-3,3.14-4.64,2.22-2.94,4.25-6,6.1-8.12,4.07-5.06,8.32-7.93,17-10.2,12.38-3.29,13.49.76,13.68.76V35c-2.22-3.55-7.4-2.84-13.87-1.48-8.87,1.83-12.94,5.7-17.19,10.85l-.18,0c-1.67,2.15-3.89,5.2-5.92,8.15a74.65,74.65,0,0,1-5.91,7.88A16.84,16.84,0,0,1,251,63a51.21,51.21,0,0,1-5,1.57c2.58-1.12,5.73-2.69,7.39-4.47a6.88,6.88,0,0,0,1.66-3.7,5.22,5.22,0,0,0-3.32-5,5.6,5.6,0,0,0-3.15,0l-5.17,5.12c-.19.22-.19.44-.37.67Z" transform="translate(-2.11 -2.11)"/><path class="cls-1" d="M271.19,30.67a82.71,82.71,0,0,1,18.48-1.91v0s-1.29-.82-7-1.69a56.73,56.73,0,0,0-7.58-.57c-.56,0-1.11,0-1.66,0l-5,5A22.55,22.55,0,0,1,271.19,30.67Z" transform="translate(-2.11 -2.11)"/><path class="cls-1" d="M279.14,20.78c.55.13.92.2.92.2a4.65,4.65,0,0,1-.74-.35Z" transform="translate(-2.11 -2.11)"/><path class="cls-1" d="M256.21,149.44a10.6,10.6,0,0,1-1.29.55h1.48v-.05a26.13,26.13,0,0,1,18.85.05h1.3A26.46,26.46,0,0,0,256.21,149.44Z" transform="translate(-2.11 -2.11)"/><path class="cls-1" d="M290.78,140.79a16.43,16.43,0,0,0-10.16-9.37,21.93,21.93,0,0,0-12-.85,37.73,37.73,0,0,0-10.54,4.89c2.59-2.1,5-3.84,7.21-5.41l.56-.33c1.85-1.13,8.13-4.79,12.57-7.12,3.32-1.76,7.58-4.73,8.69-8.89a9.65,9.65,0,0,0-.74-7.6,6.18,6.18,0,0,0-3.15-2.77c.56-.69,1.11-1.37,1.67-2a27.73,27.73,0,0,0,6.28-15,3.61,3.61,0,0,0,1.67.53,3.37,3.37,0,0,0,2.4-.79c1.48-1.13,1.85-3.76.92-5.9-1.66-3.72-4.43-6.54-6.28-8.63a12.33,12.33,0,0,1-1.67-1.7l-.92-1,.55,1.29s.93,3,.19,5.25a11.27,11.27,0,0,1-1.29,3.41,8.29,8.29,0,0,0-.74,1.44,5.22,5.22,0,0,0-.56,4.56,2.36,2.36,0,0,0,1.85,1.52l.55.09a6.82,6.82,0,0,0,1.85-.24v0l.19-.12a33.4,33.4,0,0,0,.37-4.16,40.72,40.72,0,0,0-.56-8.27c1.11,2.89,1.11,11.48,1.11,11.93A29.93,29.93,0,0,1,284.5,101a21.67,21.67,0,0,1-1.85,2.14q-.56-.19-1.11-.33c-.19,0-.19,0-.37,0,0-1.45.18-3.17.18-5.16v-6c.19-4.92.37-8.82,1.11-16.51a55.66,55.66,0,0,1,3.89-15.19l.55-1.24-.92.92c-.37.28-7.21,6.81-9.25,12.94-1.66,5.48-1.29,11.61-1.29,12.93a7.34,7.34,0,0,0-4.81,3.23c-2,2.63-.55,7.08-.55,7.28l.18.89.37-.9A5.21,5.21,0,0,1,273,92.67a3.8,3.8,0,0,1,3.14,0c.92.4,3.88,2.25,4.25,9.92-4.07-.36-13.68,1.59-21.07,10.45,1.29-1.44,2.4-4.36,8.5-8.89a13,13,0,0,1,5.36-2.22c.37-1-1.66-5.32-6.1-3.75-3.7,1.27-5.18,3.68-6.65,7.17-.93,2.38-1.67,4.68-2.78,8.47-.55,1.36-.92,2.92-1.66,4.78l-.37,1.41.92-1.17s1.67-2.14,5.92-4.56a40.63,40.63,0,0,1,6.65-2.61c2.59-.57,4.63-.63,5.73-1.51a3.24,3.24,0,0,0,1.48-2.61,2.84,2.84,0,0,0-.74-2.44,3,3,0,0,0-2-1.09,19.45,19.45,0,0,1,6.84-.87,5,5,0,0,1,0,2.37,179.65,179.65,0,0,1-15.16,13.88,81.31,81.31,0,0,0-22,28.19c-.37.83-.74,1.63-1.11,2.38h1.3a25.5,25.5,0,0,1,1.66-3.55h0c7.77-15.1,16.27-22.68,20.15-25.91,5.73-4.88,11.28-10.13,15.16-14.18v.79a12,12,0,0,1-.37,2.63c-1.11,7.67-5.55,12.24-9.43,15.69-1.48,1.24-3.32,2.5-5.17,3.81-.37.2-.56.33-.56.33v.06c-4.25,3.05-9.8,6.49-14.6,12.18a79.69,79.69,0,0,0-6.1,8.15h1.11a68.33,68.33,0,0,1,5.36-7.45c4.43-4.89,11.09-9.74,18.11-11.46,6.47-1.57,17.75.47,21.45,9.91a20.16,20.16,0,0,1,1.48,9h.55a20.17,20.17,0,0,0-1.48-9.2Zm-9.61-37.53h0s.18,0,.18,0a4.52,4.52,0,0,1,.93.26c-.37.42-.74.87-1.11,1.31ZM271,125.89c4.07-3.53,8.32-8.19,9.62-16a13.11,13.11,0,0,0,.36-2.66,5.14,5.14,0,0,1,.19-1.52l1.66-1.92a6.7,6.7,0,0,1,3.15,2.63h0a10,10,0,0,1,.74,7.19c-1.11,4-5.37,6.84-8.51,8.54-2.59,1.33-5.73,3.08-8.32,4.56Z" transform="translate(-2.11 -2.11)"/><path class="cls-1" d="M240.13,150a13.09,13.09,0,0,0,.74-2.57c2.22-8.5-2.4-16.1-2.4-16.19l-.56-1.09v1.28a23.45,23.45,0,0,1,.37,7.33,40.69,40.69,0,0,1-3,10.21c-.18.35-.18.7-.36,1Z" transform="translate(-2.11 -2.11)"/><path class="cls-2" d="M244.2,124.47l3.88,9.85c2.59-6.19,3.51-13.5,4.25-22.41A22.44,22.44,0,0,1,259,97.24l1.11-.91-1.3.44c-.18,0-9.06,3.11-12.2,10.91a15.3,15.3,0,0,0-.55,6.86,13.34,13.34,0,0,0-5.18-1.52,9.26,9.26,0,0,0-1.29,0c-6.1.46-7.77,5.9-8,5.95v.52l.37-.18a12.31,12.31,0,0,1,4.43-.6,8.54,8.54,0,0,1,7.77,5.74Z" transform="translate(-2.11 -2.11)"/><path class="cls-1" d="M290.23,133a21.07,21.07,0,0,1,2.22,3,14.25,14.25,0,0,0-.56-4.84,8.06,8.06,0,0,0-4.25-4.32s.92-.34,2.4-2.94c1.85-3.53-.18-10-.18-10h0s.18,5.81-4.07,9.63c-3,2.63-15.9,5.42-15.9,5.42a80.93,80.93,0,0,1,8.88-.7c3.69,0,8.32.85,11.46,4.73Z" transform="translate(-2.11 -2.11)"/><path class="cls-3" d="M259.73,144.67a27.06,27.06,0,0,0-8.51,5.32h1.48a23.42,23.42,0,0,1,10.17-3c6.65-.22,9.8.48,13.86,2.2.74.34,1.48.61,1.85.83h2.59a6.61,6.61,0,0,0,2.22-2.45,8.86,8.86,0,0,0-1.3-9.38s-3.14,5.59-9.24,5.2c-7.21-.48-9.8.11-13.12,1.31Z" transform="translate(-2.11 -2.11)"/><path class="cls-1" d="M186.34,13.34a9.67,9.67,0,0,1,7.21.68h0a6.11,6.11,0,0,1,2.77,3.12c-.74.56-1.29,1.15-2,1.77-.56,0-1.11.07-1.48.13-.93.07-1.85.17-2.59.3-7.91,1.25-12.57,5.63-16.1,9.74-.26.31-.54.65-.8,1,1.48-2.57,3.22-5.68,4.55-8.21,1.72-3.27,4.59-7.41,8.47-8.51Z" transform="translate(-2.11 -2.11)"/><path class="cls-1" d="M196.69,18.6v.22h0l-1.48.05a7.14,7.14,0,0,1,1.29-1.19C196.5,18,196.69,18.28,196.69,18.6Z" transform="translate(-2.11 -2.11)"/><path class="cls-1" d="M266.2,32.63a8.47,8.47,0,0,0-.74,2l-4.25,4.22a55.7,55.7,0,0,0,2.58-6.12c5-15,7.21-27.45,1.48-30.59l.56,0C272.11,3.55,271.56,17.59,266.2,32.63Z" transform="translate(-2.11 -2.11)"/><path class="cls-1" d="M210,60.52a6.75,6.75,0,0,1,5.73.8c.37-1,1.11-3.26,4.07-3.37h.37c4.06.11,5.17,3.22,6.28,5.7a5.59,5.59,0,0,0,.74,1.73v.06A26.8,26.8,0,0,0,230,70l-6.1,6.07c-.74,0-1.48-.1-2.21-.21a13.83,13.83,0,0,1-8.51-3.84,5.41,5.41,0,0,1-1.29-6.44,7.87,7.87,0,0,1,3-2.86V62.7l.18,0s1.11.33,2.77,3.05A22.64,22.64,0,0,0,221.65,70a13.31,13.31,0,0,0,4.62,1.92c-.19,0-.19-.09-.37-.15s-.19-.11-.37-.17c-1.48-.68-3.15-1.38-6.84-6.56a15.91,15.91,0,0,0-3-3.09v-.05a6.61,6.61,0,0,0-5.55-.87,7.59,7.59,0,0,0-4.62,4.07,12.47,12.47,0,0,0,0,10c2,4.18,5.36,6.73,11.83,7.56l-.92.89c-5.92-.87-10-3.77-12-8.41a12.54,12.54,0,0,1,.37-10.61,8.26,8.26,0,0,1,5.18-4Z" transform="translate(-2.11 -2.11)"/><path class="cls-1" d="M277.1,22.9v0l-2.4,2.39V23.05c-.19-7-3.33-20.64-8.32-20.91l.74,0C273.41,3.5,276.73,13.79,277.1,22.9Z" transform="translate(-2.11 -2.11)"/><path class="cls-1" d="M242.9,56.9c-3.32,1.92-5.54,3.2-7,5.67a8.61,8.61,0,0,0-.92,2.56l-2.41,2.25c-.74-2.2-1.66-5.77-2.4-8.87A43.08,43.08,0,0,1,229,49.56a17.57,17.57,0,0,1,1.85-8.48A7,7,0,0,1,236.06,38a6.81,6.81,0,0,1,2,.26c3.33,1,4.25,3.14,4.43,3.91,1.3-1,3-2.14,4.63-3.29,3-2.07,5.91-4.19,8.13-6,5-4.17,8-8.41,10.17-17,3.32-12.47-.74-13.61-.74-13.68l.18,0c3.7,2.14,3,7.44,1.67,13.85-1.85,8.86-5.73,13-10.91,17.31h0c-2.22,1.77-5.36,3.92-8.32,6a89,89,0,0,0-7.76,5.86A26.36,26.36,0,0,0,237,49a40,40,0,0,0-1.48,5c1.11-2.72,2.59-5.83,4.44-7.47A5.93,5.93,0,0,1,243.64,45a4.83,4.83,0,0,1,5,3.27,4.58,4.58,0,0,1,0,3.14l-5.17,5.12C243.27,56.64,243.09,56.79,242.9,56.9Z" transform="translate(-2.11 -2.11)"/><path class="cls-1" d="M269.34,28.84a87.56,87.56,0,0,0,1.85-18.58h0s.92,1.33,1.85,7.13a65.32,65.32,0,0,1,.55,7.6,4.35,4.35,0,0,1-.18,1.52l-5,5A18.88,18.88,0,0,0,269.34,28.84Z" transform="translate(-2.11 -2.11)"/><path class="cls-1" d="M279.14,20.78A1.36,1.36,0,0,0,279,20a2.82,2.82,0,0,1,.37.61Z" transform="translate(-2.11 -2.11)"/><path class="cls-1" d="M150.57,43.72c-.19.44-.37.89-.58,1.31V43.68a.6.6,0,0,0,.08-.16A25.56,25.56,0,0,0,150,24.83V23.4A26.39,26.39,0,0,1,150.57,43.72Z" transform="translate(-2.11 -2.11)"/><path class="cls-1" d="M159.22,9.24a16.37,16.37,0,0,1,9.35,10.06,22.07,22.07,0,0,1,.85,12.13A36.34,36.34,0,0,1,164.54,42c2.09-2.57,3.85-5.07,5.4-7.3.11-.15.22-.32.33-.48,1.15-1.93,4.79-8.15,7.14-12.63,1.75-3.36,4.71-7.61,8.93-8.76.92-.29,4.62-1.07,7.58.73a6.4,6.4,0,0,1,2.77,3.21c.74-.59,1.29-1.15,2-1.68a28.85,28.85,0,0,1,15-6.27,8.25,8.25,0,0,1-.56-1.66,4.18,4.18,0,0,1,.93-2.41c1.11-1.46,3.69-1.87,5.91-.91a30.13,30.13,0,0,1,8.51,6.35,16.67,16.67,0,0,1,1.66,1.58l1.11.87-1.3-.41a10.51,10.51,0,0,0-5.17-.33,12.69,12.69,0,0,0-3.51,1.4,9.07,9.07,0,0,1-1.48.77,5.23,5.23,0,0,1-4.44.59,2.63,2.63,0,0,1-1.48-1.89.66.66,0,0,1-.18-.56,11.89,11.89,0,0,1,.18-1.81l.19-.14v0a17.78,17.78,0,0,1,4.25-.45,37.21,37.21,0,0,1,8.13.56c-2.77-1.2-11.46-1.05-11.83-1.05a28.46,28.46,0,0,0-15.53,6.23c-.74.56-1.48,1.15-2.22,1.79.19.37.19.76.37,1.18v.32l5.18-.11,6.1-.11c4.81-.12,8.69-.32,16.45-1.12a51.92,51.92,0,0,0,15.16-3.86l1.3-.57-.93,1c-.37.3-6.84,7.24-12.94,9.22a38.24,38.24,0,0,1-12.94,1.29,7.91,7.91,0,0,1-3.33,4.94c-2.58,1.85-7,.53-7.21.48l-.92-.28.92-.24a6,6,0,0,0,3.33-2.4,3.78,3.78,0,0,0-.18-3.13c-.37-1-2.22-4-9.8-4.38.37,4.07-1.66,13.64-10.54,21,1.48-1.2,4.44-2.29,8.88-8.41A13.25,13.25,0,0,0,198,26.69c1.11-.35,5.36,1.78,3.89,6.27-1.3,3.68-3.7,5.07-7.21,6.53a87.45,87.45,0,0,1-8.51,2.9l-4.77,1.51-1.42.45,1.18-.91a20.6,20.6,0,0,0,4.64-5.93c.56-1.26,2.22-5.18,2.59-6.58.56-2.72.56-4.79,1.48-5.9a3.25,3.25,0,0,1,2.59-1.44,3,3,0,0,1,2.4.74A2.59,2.59,0,0,1,196,26.42a21.07,21.07,0,0,0,.92-6.92c-.74,0-1.47,0-2.4,0a166.69,166.69,0,0,0-13.88,15.29,84.15,84.15,0,0,1-28.19,22L150,57.88V56.6c1.08-.5,2.2-1.07,3.57-1.79h0c15.09-7.76,22.67-16.17,25.9-20a208.24,208.24,0,0,1,14.27-15.23c-.37,0-.55,0-.92,0-.93.05-1.67.16-2.59.29-7.65,1.24-12.24,5.53-15.7,9.56-1.22,1.44-2.47,3.2-3.78,5.08-.23.37-.34.58-.36.59l0,0c-3,4.36-6.49,9.76-12.19,14.58A56.32,56.32,0,0,1,150,55.77V54.68a51.86,51.86,0,0,0,7.45-5.43c4.9-4.29,9.76-10.93,11.47-17.95,1.59-6.51-.47-17.86-9.89-21.57a19.43,19.43,0,0,0-9-1.35V7.82a20.23,20.23,0,0,1,9.23,1.42Zm37.47,9.58h0V18.6c0-.32-.19-.63-.19-.92a7.14,7.14,0,0,0-1.29,1.19ZM174.12,29.08c3.53-4.11,8.19-8.49,16.1-9.74.74-.13,1.66-.23,2.59-.3.37-.06.92-.09,1.48-.13.74-.62,1.29-1.21,2-1.77A6.09,6.09,0,0,0,193.55,14h0a9.67,9.67,0,0,0-7.21-.69c-3.88,1.1-6.75,5.24-8.47,8.51-1.33,2.53-3.07,5.64-4.55,8.21C173.58,29.73,173.86,29.39,174.12,29.08Z" transform="translate(-2.11 -2.11)"/><path class="cls-1" d="M150,59.8c.87-.28,1.74-.53,2.59-.76,8.49-2.2,16.1,2.43,16.18,2.46l1.09.69L168.59,62a31.26,31.26,0,0,0-7.34-.2,35.51,35.51,0,0,0-10.2,2.85c-.35.14-.7.29-1.06.46Z" transform="translate(-2.11 -2.11)"/><path class="cls-2" d="M175.52,55.79,165.67,52c6.21-2.74,13.51-3.53,22.33-4.27,9.8-.83,14.79-6.69,14.79-6.77l.92-1.1-.55,1.36c0,.1-3,9-10.91,12.2-2.22.95-5.54.74-6.84.61a9.79,9.79,0,0,1,1.48,5.09,1.58,1.58,0,0,1,0,1.31A9,9,0,0,1,181,68.29l-.51.16.18-.51a12.52,12.52,0,0,0,.57-4.44A8.46,8.46,0,0,0,175.52,55.79Z" transform="translate(-2.11 -2.11)"/><path class="cls-1" d="M167,9.72a31.47,31.47,0,0,0-3-2.2,11.59,11.59,0,0,1,4.83.66,8.12,8.12,0,0,1,4.34,4.26s.32-1.08,2.92-2.49c3.53-1.9,10,.22,10,.22h0s-5.82-.22-9.67,4c-2.6,2.9-5.39,15.93-5.39,15.93a81.06,81.06,0,0,0,.68-8.93C171.73,17.52,170.94,12.91,167,9.72Z" transform="translate(-2.11 -2.11)"/><path class="cls-4" d="M155.34,40.34A27.38,27.38,0,0,1,150,48.8V47.25a22.68,22.68,0,0,0,3-10.17c.24-6.54-.48-9.74-2.2-13.82-.34-.8-.61-1.41-.84-1.85V18.86a6.2,6.2,0,0,1,2.46-2.16,8.87,8.87,0,0,1,9.39,1.23s-5.58,3.07-5.19,9.13c.48,7.29-.13,9.89-1.31,13.28Z" transform="translate(-2.11 -2.11)"/></svg>